<svg width="63" height="121" viewBox="0 0 63 121" fill="none" xmlns="http://www.w3.org/2000/svg">
<path d="M57.5707 5.33203L59.5534 3.34937L61.5374 5.33203L62.2201 4.64937L60.2374 2.66536L62.2201 0.682699L61.5374 -0.00130177L59.5534 1.9827L57.5707 -0.00130177L56.8867 0.682699L58.8707 2.66536L56.8867 4.64937L57.5707 5.33203Z" fill="#02F3F7"/>
<path d="M57.5707 19.6836L59.5534 17.7009L61.5374 19.6836L62.2201 18.9996L60.2374 17.0169L62.2201 15.0343L61.5374 14.3503L59.5534 16.3329L57.5707 14.3503L56.8867 15.0343L58.8707 17.0169L56.8867 18.9996L57.5707 19.6836Z" fill="#02F3F7"/>
<path d="M57.5707 34.0352L59.5534 32.0525L61.5374 34.0352L62.2201 33.3512L60.2374 31.3685L62.2201 29.3858L61.5374 28.7018L59.5534 30.6845L57.5707 28.7018L56.8867 29.3858L58.8707 31.3685L56.8867 33.3512L57.5707 34.0352Z" fill="#02F3F7"/>
<path d="M57.5707 48.3867L59.5534 46.4041L61.5374 48.3867L62.2201 47.7027L60.2374 45.7201L62.2201 43.7374L61.5374 43.0534L59.5534 45.0361L57.5707 43.0534L56.8867 43.7374L58.8707 45.7201L56.8867 47.7027L57.5707 48.3867Z" fill="#02F3F7"/>
<path d="M57.5707 62.7344L59.5534 60.7504L61.5374 62.7344L62.2201 62.0504L60.2374 60.0677L62.2201 58.085L61.5374 57.401L59.5534 59.3837L57.5707 57.401L56.8867 58.085L58.8707 60.0677L56.8867 62.0504L57.5707 62.7344Z" fill="#02F3F7"/>
<path d="M57.5707 77.0859L59.5534 75.1019L61.5374 77.0846L62.2201 76.4019L60.2374 74.4193L62.2201 72.4353L61.5374 71.7526L59.5534 73.7353L57.5707 71.7526L56.8867 72.4353L58.8707 74.4179L56.8867 76.4019L57.5707 77.0859Z" fill="#02F3F7"/>
<path d="M57.5707 91.4336L59.5534 89.4509L61.5374 91.4336L62.2201 90.7509L60.2374 88.7669L62.2201 86.7843L61.5374 86.1003L59.5534 88.0843L57.5707 86.1003L56.8867 86.7843L58.8707 88.7669L56.8867 90.7509L57.5707 91.4336Z" fill="#02F3F7"/>
<path d="M57.5707 105.785L59.5534 103.802L61.5374 105.785L62.2201 105.101L60.2374 103.118L62.2201 101.136L61.5374 100.452L59.5534 102.434L57.5707 100.452L56.8867 101.136L58.8707 103.118L56.8867 105.101L57.5707 105.785Z" fill="#02F3F7"/>
<path d="M57.5707 120.137L59.5534 118.154L61.5374 120.137L62.2201 119.453L60.2374 117.47L62.2201 115.487L61.5374 114.803L59.5534 116.786L57.5707 114.803L56.8867 115.487L58.8707 117.47L56.8867 119.453L57.5707 120.137Z" fill="#02F3F7"/>
<path d="M43.348 5.33203L45.3307 3.34937L47.3133 5.33203L47.9974 4.64937L46.0147 2.66536L47.9974 0.682699L47.3133 -0.00130177L45.3307 1.9827L43.348 -0.00130177L42.6641 0.682699L44.6467 2.66536L42.6641 4.64937L43.348 5.33203Z" fill="#02F3F7"/>
<path d="M43.348 19.6836L45.3307 17.7009L47.3133 19.6836L47.9974 18.9996L46.0147 17.0169L47.9974 15.0343L47.3133 14.3503L45.3307 16.3329L43.348 14.3503L42.6641 15.0343L44.6467 17.0169L42.6641 18.9996L43.348 19.6836Z" fill="#02F3F7"/>
<path d="M43.348 34.0352L45.3307 32.0525L47.3133 34.0352L47.9974 33.3512L46.0147 31.3685L47.9974 29.3858L47.3133 28.7018L45.3307 30.6845L43.348 28.7018L42.6641 29.3858L44.6467 31.3685L42.6641 33.3512L43.348 34.0352Z" fill="#02F3F7"/>
<path d="M43.348 48.3867L45.3307 46.4041L47.3133 48.3867L47.9974 47.7027L46.0147 45.7201L47.9974 43.7374L47.3133 43.0534L45.3307 45.0361L43.348 43.0534L42.6641 43.7374L44.6467 45.7201L42.6641 47.7027L43.348 48.3867Z" fill="#02F3F7"/>
<path d="M43.348 62.7344L45.3307 60.7504L47.3133 62.7344L47.9974 62.0504L46.0147 60.0677L47.9974 58.085L47.3133 57.401L45.3307 59.3837L43.348 57.401L42.6641 58.085L44.6467 60.0677L42.6641 62.0504L43.348 62.7344Z" fill="#02F3F7"/>
<path d="M43.348 77.0859L45.3307 75.1019L47.3133 77.0846L47.9974 76.4019L46.0147 74.4193L47.9974 72.4353L47.3133 71.7526L45.3307 73.7353L43.348 71.7526L42.6641 72.4353L44.6467 74.4179L42.6641 76.4019L43.348 77.0859Z" fill="#02F3F7"/>
<path d="M43.348 91.4336L45.3307 89.4509L47.3133 91.4336L47.9974 90.7509L46.0147 88.7669L47.9974 86.7843L47.3133 86.1003L45.3307 88.0843L43.348 86.1003L42.6641 86.7843L44.6467 88.7669L42.6641 90.7509L43.348 91.4336Z" fill="#02F3F7"/>
<path d="M43.348 105.785L45.3307 103.802L47.3133 105.785L47.9974 105.101L46.0147 103.118L47.9974 101.136L47.3133 100.452L45.3307 102.434L43.348 100.452L42.6641 101.136L44.6467 103.118L42.6641 105.101L43.348 105.785Z" fill="#02F3F7"/>
<path d="M43.348 120.137L45.3307 118.154L47.3133 120.137L47.9974 119.453L46.0147 117.47L47.9974 115.487L47.3133 114.803L45.3307 116.786L43.348 114.803L42.6641 115.487L44.6467 117.47L42.6641 119.453L43.348 120.137Z" fill="#02F3F7"/>
<path d="M29.1255 5.33203L31.1081 3.34937L33.0908 5.33203L33.7747 4.64937L31.7921 2.66536L33.7747 0.682699L33.0908 -0.00130177L31.1081 1.9827L29.1255 -0.00130177L28.4414 0.682699L30.4241 2.66536L28.4414 4.64937L29.1255 5.33203Z" fill="#02F3F7"/>
<path d="M29.1255 19.6836L31.1081 17.7009L33.0908 19.6836L33.7747 18.9996L31.7921 17.0169L33.7747 15.0343L33.0908 14.3503L31.1081 16.3329L29.1255 14.3503L28.4414 15.0343L30.4241 17.0169L28.4414 18.9996L29.1255 19.6836Z" fill="#02F3F7"/>
<path d="M29.1255 34.0352L31.1081 32.0525L33.0908 34.0352L33.7747 33.3512L31.7921 31.3685L33.7747 29.3858L33.0908 28.7018L31.1081 30.6845L29.1255 28.7018L28.4414 29.3858L30.4241 31.3685L28.4414 33.3512L29.1255 34.0352Z" fill="#02F3F7"/>
<path d="M29.1255 48.3867L31.1081 46.4041L33.0908 48.3867L33.7747 47.7027L31.7921 45.7201L33.7747 43.7374L33.0908 43.0534L31.1081 45.0361L29.1255 43.0534L28.4414 43.7374L30.4241 45.7201L28.4414 47.7027L29.1255 48.3867Z" fill="#02F3F7"/>
<path d="M29.1255 62.7344L31.1081 60.7504L33.0908 62.7344L33.7747 62.0504L31.7921 60.0677L33.7747 58.085L33.0908 57.401L31.1081 59.3837L29.1255 57.401L28.4414 58.085L30.4241 60.0677L28.4414 62.0504L29.1255 62.7344Z" fill="#02F3F7"/>
<path d="M29.1255 77.0859L31.1081 75.1019L33.0908 77.0846L33.7747 76.4019L31.7921 74.4193L33.7747 72.4353L33.0908 71.7526L31.1081 73.7353L29.1255 71.7526L28.4414 72.4353L30.4241 74.4179L28.4414 76.4019L29.1255 77.0859Z" fill="#02F3F7"/>
<path d="M29.1255 91.4336L31.1081 89.4509L33.0908 91.4336L33.7747 90.7509L31.7921 88.7669L33.7747 86.7843L33.0908 86.1003L31.1081 88.0843L29.1255 86.1003L28.4414 86.7843L30.4241 88.7669L28.4414 90.7509L29.1255 91.4336Z" fill="#02F3F7"/>
<path d="M29.1255 105.785L31.1081 103.802L33.0908 105.785L33.7747 105.101L31.7921 103.118L33.7747 101.136L33.0908 100.452L31.1081 102.434L29.1255 100.452L28.4414 101.136L30.4241 103.118L28.4414 105.101L29.1255 105.785Z" fill="#02F3F7"/>
<path d="M29.1255 120.137L31.1081 118.154L33.0908 120.137L33.7747 119.453L31.7921 117.47L33.7747 115.487L33.0908 114.803L31.1081 116.786L29.1255 114.803L28.4414 115.487L30.4241 117.47L28.4414 119.453L29.1255 120.137Z" fill="#02F3F7"/>
<path d="M14.9027 5.33203L16.8854 3.34937L18.8694 5.33203L19.5521 4.64937L17.5694 2.66536L19.5521 0.682699L18.8694 -0.00130177L16.8854 1.9827L14.9027 -0.00130177L14.2188 0.682699L16.2027 2.66536L14.2188 4.64937L14.9027 5.33203Z" fill="#02F3F7"/>
<path d="M14.9027 19.6836L16.8854 17.7009L18.8694 19.6836L19.5521 18.9996L17.5694 17.0169L19.5521 15.0343L18.8694 14.3503L16.8854 16.3329L14.9027 14.3503L14.2188 15.0343L16.2027 17.0169L14.2188 18.9996L14.9027 19.6836Z" fill="#02F3F7"/>
<path d="M14.9027 34.0352L16.8854 32.0525L18.8694 34.0352L19.5521 33.3512L17.5694 31.3685L19.5521 29.3858L18.8694 28.7018L16.8854 30.6845L14.9027 28.7018L14.2188 29.3858L16.2027 31.3685L14.2188 33.3512L14.9027 34.0352Z" fill="#02F3F7"/>
<path d="M14.9027 48.3867L16.8854 46.4041L18.8694 48.3867L19.5521 47.7027L17.5694 45.7201L19.5521 43.7374L18.8694 43.0534L16.8854 45.0361L14.9027 43.0534L14.2188 43.7374L16.2027 45.7201L14.2188 47.7027L14.9027 48.3867Z" fill="#02F3F7"/>
<path d="M14.9027 62.7344L16.8854 60.7504L18.8694 62.7344L19.5521 62.0504L17.5694 60.0677L19.5521 58.085L18.8694 57.401L16.8854 59.3837L14.9027 57.401L14.2188 58.085L16.2027 60.0677L14.2188 62.0504L14.9027 62.7344Z" fill="#02F3F7"/>
<path d="M14.9027 77.0859L16.8854 75.1019L18.8694 77.0846L19.5521 76.4019L17.5694 74.4193L19.5521 72.4353L18.8694 71.7526L16.8854 73.7353L14.9027 71.7526L14.2188 72.4353L16.2027 74.4179L14.2188 76.4019L14.9027 77.0859Z" fill="#02F3F7"/>
<path d="M14.9027 91.4336L16.8854 89.4509L18.8694 91.4336L19.5521 90.7509L17.5694 88.7669L19.5521 86.7843L18.8694 86.1003L16.8854 88.0843L14.9027 86.1003L14.2188 86.7843L16.2027 88.7669L14.2188 90.7509L14.9027 91.4336Z" fill="#02F3F7"/>
<path d="M14.9027 105.785L16.8854 103.802L18.8694 105.785L19.5521 105.101L17.5694 103.118L19.5521 101.136L18.8694 100.452L16.8854 102.434L14.9027 100.452L14.2188 101.136L16.2027 103.118L14.2188 105.101L14.9027 105.785Z" fill="#02F3F7"/>
<path d="M14.9027 120.137L16.8854 118.154L18.8694 120.137L19.5521 119.453L17.5694 117.47L19.5521 115.487L18.8694 114.803L16.8854 116.786L14.9027 114.803L14.2188 115.487L16.2027 117.47L14.2188 119.453L14.9027 120.137Z" fill="#02F3F7"/>
<path d="M0.683984 5.33203L2.66667 3.34937L4.64928 5.33203L5.33333 4.64937L3.35065 2.66536L5.33333 0.682699L4.64928 -0.00130177L2.66667 1.9827L0.683984 -0.00130177L0 0.682699L1.98262 2.66536L0 4.64937L0.683984 5.33203Z" fill="#02F3F7"/>
<path d="M0.683984 19.6836L2.66667 17.7009L4.64928 19.6836L5.33333 18.9996L3.35065 17.0169L5.33333 15.0343L4.64928 14.3503L2.66667 16.3329L0.683984 14.3503L0 15.0343L1.98262 17.0169L0 18.9996L0.683984 19.6836Z" fill="#02F3F7"/>
<path d="M0.683984 34.0352L2.66667 32.0525L4.64928 34.0352L5.33333 33.3512L3.35065 31.3685L5.33333 29.3858L4.64928 28.7018L2.66667 30.6845L0.683984 28.7018L0 29.3858L1.98262 31.3685L0 33.3512L0.683984 34.0352Z" fill="#02F3F7"/>
<path d="M0.683984 48.3867L2.66667 46.4041L4.64928 48.3867L5.33333 47.7027L3.35065 45.7201L5.33333 43.7374L4.64928 43.0534L2.66667 45.0361L0.683984 43.0534L0 43.7374L1.98262 45.7201L0 47.7027L0.683984 48.3867Z" fill="#02F3F7"/>
<path d="M0.683984 62.7344L2.66667 60.7504L4.64928 62.7344L5.33333 62.0504L3.35065 60.0677L5.33333 58.085L4.64928 57.401L2.66667 59.3837L0.683984 57.401L0 58.085L1.98262 60.0677L0 62.0504L0.683984 62.7344Z" fill="#02F3F7"/>
<path d="M0.683984 77.0859L2.66667 75.1019L4.64928 77.0846L5.33333 76.4019L3.35065 74.4193L5.33333 72.4353L4.64928 71.7526L2.66667 73.7353L0.683984 71.7526L0 72.4353L1.98262 74.4179L0 76.4019L0.683984 77.0859Z" fill="#02F3F7"/>
<path d="M0.683984 91.4336L2.66667 89.4509L4.64928 91.4336L5.33333 90.7509L3.35065 88.7669L5.33333 86.7843L4.64928 86.1003L2.66667 88.0843L0.683984 86.1003L0 86.7843L1.98262 88.7669L0 90.7509L0.683984 91.4336Z" fill="#02F3F7"/>
<path d="M0.683984 105.785L2.66667 103.802L4.64928 105.785L5.33333 105.101L3.35065 103.118L5.33333 101.136L4.64928 100.452L2.66667 102.434L0.683984 100.452L0 101.136L1.98262 103.118L0 105.101L0.683984 105.785Z" fill="#02F3F7"/>
<path d="M0.683984 120.137L2.66667 118.154L4.64928 120.137L5.33333 119.453L3.35065 117.47L5.33333 115.487L4.64928 114.803L2.66667 116.786L0.683984 114.803L0 115.487L1.98262 117.47L0 119.453L0.683984 120.137Z" fill="#02F3F7"/>
</svg>
