<svg width="13" height="149" viewBox="0 0 13 149" fill="none" xmlns="http://www.w3.org/2000/svg">
<path d="M6.33333 1.33464C3.57733 1.33464 1.33333 3.57864 1.33333 6.33464C1.33333 9.09197 3.57733 11.3346 6.33333 11.3346C9.08933 11.3346 11.3333 9.09197 11.3333 6.33464C11.3333 3.57864 9.08933 1.33464 6.33333 1.33464ZM6.33333 12.668C2.84133 12.668 0 9.82797 0 6.33464C0 2.84264 2.84133 0.00130284 6.33333 0.00130284C9.82533 0.00130284 12.6667 2.84264 12.6667 6.33464C12.6667 9.82797 9.82533 12.668 6.33333 12.668Z" fill="#02F3F7"/>
<path d="M6.33333 24.0026C3.57733 24.0026 1.33333 26.2453 1.33333 29.0026C1.33333 31.7599 3.57733 34.0026 6.33333 34.0026C9.08933 34.0026 11.3333 31.7599 11.3333 29.0026C11.3333 26.2453 9.08933 24.0026 6.33333 24.0026ZM6.33333 35.3359C2.84133 35.3359 0 32.4946 0 29.0026C0 25.5106 2.84133 22.6693 6.33333 22.6693C9.82533 22.6693 12.6667 25.5106 12.6667 29.0026C12.6667 32.4946 9.82533 35.3359 6.33333 35.3359Z" fill="#02F3F7"/>
<path d="M6.33333 46.6706C3.57733 46.6706 1.33333 48.9146 1.33333 51.6706C1.33333 54.4279 3.57733 56.6706 6.33333 56.6706C9.08933 56.6706 11.3333 54.4279 11.3333 51.6706C11.3333 48.9146 9.08933 46.6706 6.33333 46.6706ZM6.33333 58.0039C2.84133 58.0039 0 55.1626 0 51.6706C0 48.1786 2.84133 45.3372 6.33333 45.3372C9.82533 45.3372 12.6667 48.1786 12.6667 51.6706C12.6667 55.1626 9.82533 58.0039 6.33333 58.0039Z" fill="#02F3F7"/>
<path d="M6.33333 69.3385C3.57733 69.3385 1.33333 71.5825 1.33333 74.3385C1.33333 77.0959 3.57733 79.3385 6.33333 79.3385C9.08933 79.3385 11.3333 77.0959 11.3333 74.3385C11.3333 71.5825 9.08933 69.3385 6.33333 69.3385ZM6.33333 80.6719C2.84133 80.6719 0 77.8319 0 74.3385C0 70.8465 2.84133 68.0052 6.33333 68.0052C9.82533 68.0052 12.6667 70.8465 12.6667 74.3385C12.6667 77.8319 9.82533 80.6719 6.33333 80.6719Z" fill="#02F3F7"/>
<path d="M6.33333 92.0065C3.57733 92.0065 1.33333 94.2492 1.33333 97.0065C1.33333 99.7625 3.57733 102.007 6.33333 102.007C9.08933 102.007 11.3333 99.7625 11.3333 97.0065C11.3333 94.2492 9.08933 92.0065 6.33333 92.0065ZM6.33333 103.34C2.84133 103.34 0 100.499 0 97.0065C0 93.5132 2.84133 90.6732 6.33333 90.6732C9.82533 90.6732 12.6667 93.5132 12.6667 97.0065C12.6667 100.499 9.82533 103.34 6.33333 103.34Z" fill="#02F3F7"/>
<path d="M6.33333 114.674C3.57733 114.674 1.33333 116.917 1.33333 119.674C1.33333 122.43 3.57733 124.674 6.33333 124.674C9.08933 124.674 11.3333 122.43 11.3333 119.674C11.3333 116.917 9.08933 114.674 6.33333 114.674ZM6.33333 126.008C2.84133 126.008 0 123.166 0 119.674C0 116.182 2.84133 113.341 6.33333 113.341C9.82533 113.341 12.6667 116.182 12.6667 119.674C12.6667 123.166 9.82533 126.008 6.33333 126.008Z" fill="#02F3F7"/>
<path d="M6.33333 137.342C3.57733 137.342 1.33333 139.585 1.33333 142.342C1.33333 145.098 3.57733 147.342 6.33333 147.342C9.08933 147.342 11.3333 145.098 11.3333 142.342C11.3333 139.585 9.08933 137.342 6.33333 137.342ZM6.33333 148.676C2.84133 148.676 0 145.834 0 142.342C0 138.85 2.84133 136.009 6.33333 136.009C9.82533 136.009 12.6667 138.85 12.6667 142.342C12.6667 145.834 9.82533 148.676 6.33333 148.676Z" fill="#02F3F7"/>
</svg>
