<svg width="2024" height="1834" viewBox="0 0 2024 1834" fill="none" xmlns="http://www.w3.org/2000/svg">
<g opacity="0.04">
<path d="M1693.39 885.057L1693.09 885.209L1574.05 1100.54L1336.35 1208.08L1336.05 1208.23L1217.05 1423.57L979.347 1531.11L979.045 1531.26L860.045 1746.59L700.209 1818.87H704.997L861.289 1748.16L861.591 1748.01L980.629 1532.68L1218.33 1425.14L1218.63 1424.98L1337.67 1209.65L1575.37 1102.11L1575.67 1101.96L1694.67 886.628L1932.37 779.088L1932.67 778.936L2010.99 637.255V632.899L1931.09 777.467L1693.39 885.057ZM1663.64 858.109L1663.34 858.261L1544.34 1073.59L1306.64 1181.13L1306.33 1181.29L1187.33 1396.62L949.635 1504.16L949.333 1504.31L830.332 1719.64L610.996 1818.87H615.785L831.577 1721.26L831.878 1721.11L950.879 1505.78L1188.58 1398.24L1188.88 1398.09L1307.88 1182.75L1545.58 1075.21L1545.88 1075.06L1664.88 859.73L1902.58 752.19L1902.88 752.038L2010.95 556.512V552.155L1901.3 750.569L1663.64 858.109ZM1782.34 319.904L1663.34 535.237L1425.64 642.776L1425.33 642.928L1306.33 858.261L1068.63 965.801L1068.33 965.953L949.22 1181.29L711.483 1288.82L711.181 1288.98L592.181 1504.31L354.444 1611.85L354.142 1612L239.817 1818.87H242.23L355.763 1613.42L593.463 1505.88L593.764 1505.73L712.765 1290.4L950.464 1182.86L950.766 1182.7L1069.77 967.371L1307.5 859.831L1307.8 859.679L1426.88 644.347L1664.58 536.807L1664.88 536.655L1783.88 321.323L2010.99 218.595V216.468L1782.64 319.752L1782.34 319.904ZM1812.09 346.802L1693.09 562.134L1455.35 669.674L1455.05 669.826L1336.05 885.159L1098.31 992.698L1098.01 992.85L979.008 1208.18L741.271 1315.72L740.969 1315.87L621.968 1531.21L384.231 1638.75L383.93 1638.9L284.461 1818.87H286.874L385.551 1640.37L623.25 1532.83L623.552 1532.68L742.553 1317.34L980.29 1209.8L980.591 1209.65L1099.59 994.319L1337.29 886.78L1337.59 886.628L1456.63 671.295L1694.33 563.755L1694.63 563.603L1813.67 348.271L2010.99 259.017V256.839L1812.39 346.701L1812.09 346.802ZM1960.87 1127.44L1841.87 1342.77L1604.17 1450.31L1603.87 1450.46L1484.87 1665.8L1247.17 1773.34L1246.87 1773.49L1221.8 1818.87H1224.21L1248.49 1774.96L1486.19 1667.42L1486.49 1667.27L1605.49 1451.93L1843.19 1344.39L1843.5 1344.24L1962.5 1128.91L2011.06 1106.92V1104.75L1961.21 1127.29L1960.87 1127.44ZM1990.62 1154.39L1871.62 1369.72L1633.92 1477.26L1633.62 1477.41L1514.62 1692.74L1276.92 1800.28L1276.62 1800.44L1266.4 1818.87H1268.82L1278.21 1801.85L1515.9 1694.31L1516.21 1694.16L1635.21 1478.83L1872.94 1371.29L1873.25 1371.14L1992.25 1155.81L2011.06 1147.3V1145.12L1990.96 1154.18L1990.62 1154.39ZM1752.89 938.852L1752.59 939.004L1633.59 1154.34L1395.89 1261.88L1395.58 1262.03L1276.58 1477.36L1038.88 1584.9L1038.58 1585.05L919.583 1800.39L878.785 1818.82H883.573L920.865 1801.96L921.166 1801.8L1040.09 1586.52L1277.79 1478.98L1278.09 1478.83L1397.09 1263.5L1634.83 1155.96L1635.13 1155.81L1754.13 940.473L1991.83 832.934L1992.13 832.782L2010.95 798.742V794.386L1990.55 831.313L1752.89 938.852ZM1723.14 911.955L1722.84 912.107L1603.84 1127.44L1366.14 1234.98L1365.83 1235.13L1246.83 1450.46L1009.13 1558L1008.83 1558.16L889.833 1773.49L789.534 1818.87H794.323L891.115 1775.11L891.416 1774.96L1010.42 1559.62L1248.12 1452.08L1248.42 1451.93L1367.42 1236.6L1605.12 1129.06L1605.42 1128.91L1724.42 913.576L1962.12 806.036L1962.42 805.884L2010.99 717.998V713.642L1960.84 804.415L1723.14 911.955ZM1931.12 454.493L1812.12 669.826L1574.42 777.366L1574.12 777.518L1455.12 992.85L1217.42 1100.39L1217.12 1100.54L1098.12 1315.87L860.271 1423.41L859.969 1423.57L740.969 1638.9L503.27 1746.44L502.968 1746.59L463 1818.87H465.413L504.552 1748.01L742.251 1640.47L742.553 1640.32L861.553 1424.98L1099.25 1317.44L1099.55 1317.29L1218.55 1101.96L1456.25 994.42L1456.56 994.269L1575.56 778.936L1813.26 671.396L1813.56 671.244L1932.56 455.912L2010.87 420.504V418.326L1931.28 454.341L1931.12 454.493ZM1990.62 508.339L1871.62 723.672L1633.92 831.211L1633.62 831.363L1514.62 1046.7L1276.92 1154.24L1276.62 1154.39L1157.58 1369.72L919.884 1477.26L919.583 1477.41L800.582 1692.74L562.883 1800.28L562.581 1800.44L552.363 1818.87H554.776L564.165 1801.85L801.864 1694.31L802.166 1694.16L921.166 1478.83L1158.87 1371.29L1159.17 1371.14L1278.21 1155.81L1515.9 1048.27L1516.21 1048.11L1635.21 832.782L1872.94 725.242L1873.25 725.09L1992.25 509.758L2011.06 501.248V499.069L1990.96 508.137L1990.62 508.339ZM1960.87 481.391L1841.87 696.724L1604.17 804.263L1603.87 804.415L1484.87 1019.75L1247.17 1127.29L1246.87 1127.44L1127.87 1342.77L890.172 1450.31L889.87 1450.46L770.87 1665.8L533.171 1773.34L532.869 1773.49L507.794 1818.87H510.208L534.49 1774.96L772.19 1667.42L772.491 1667.27L891.492 1451.93L1129.19 1344.39L1129.49 1344.24L1248.49 1128.91L1486.19 1021.37L1486.49 1021.22L1605.49 805.884L1843.19 698.345L1843.5 698.193L1962.5 482.86L2011.06 460.876V458.698L1961.21 481.239L1960.87 481.391ZM1841.84 373.75L1722.8 589.083L1485.1 696.622L1484.8 696.774L1365.8 912.107L1128.1 1019.65L1127.8 1019.8L1008.8 1235.13L771.096 1342.67L770.794 1342.82L651.794 1558.16L414.095 1665.69L413.793 1665.85L329.218 1818.87H331.631L415.414 1667.27L653.114 1559.73L653.415 1559.57L772.416 1344.24L1010.12 1236.7L1010.42 1236.55L1129.42 1021.22L1367.12 913.677L1367.42 913.525L1486.42 698.193L1724.12 590.653L1724.42 590.501L1843.42 375.168L2010.99 299.389V297.211L1842.14 373.598L1841.84 373.75ZM1752.89 292.855L1752.59 293.007L1633.59 508.339L1395.89 615.879L1395.58 616.031L1276.58 831.363L1038.88 938.903L1038.58 939.055L919.583 1154.39L681.883 1261.93L681.582 1262.08L562.581 1477.41L324.882 1584.95L324.58 1585.1L205.58 1800.44L164.782 1818.87H169.571L206.862 1802.01L207.164 1801.85L325.976 1586.52L563.675 1478.98L563.976 1478.83L682.977 1263.5L920.752 1155.96L921.053 1155.81L1040.05 940.473L1277.75 832.934L1278.05 832.782L1397.06 617.449L1634.75 509.909L1635.06 509.758L1754.06 294.425L1991.76 186.885L1992.06 186.733L2010.87 152.694V148.337L1990.47 185.264L1752.89 292.855ZM1871.59 400.648L1752.59 615.98L1514.85 723.52L1514.55 723.672L1395.55 939.004L1157.85 1046.54L1157.55 1046.7L1038.55 1262.03L800.846 1369.57L800.545 1369.72L681.544 1585.05L443.845 1692.59L443.543 1692.74L373.825 1818.87H376.238L445.127 1694.21L682.826 1586.67L683.128 1586.52L802.128 1371.19L1039.83 1263.65L1040.13 1263.5L1159.13 1048.16L1396.83 940.625L1397.13 940.473L1516.13 725.141L1753.87 617.601L1754.17 617.449L1873.17 402.117L2010.99 339.761V337.583L1871.93 400.496L1871.59 400.648ZM1931.12 1100.54L1812.12 1315.87L1574.42 1423.41L1574.12 1423.57L1455.12 1638.9L1217.39 1746.44L1217.08 1746.59L1177.12 1818.87H1179.53L1218.67 1748.01L1456.37 1640.47L1456.67 1640.32L1575.67 1424.98L1813.37 1317.44L1813.67 1317.29L1932.67 1101.96L2010.99 1066.55V1064.37L1931.39 1100.39L1931.12 1100.54ZM1960.87 158.367L1723.18 265.906L1722.87 266.058L1603.87 481.391L1366.17 588.931L1365.87 589.083L1246.76 804.415L1009.06 911.955L1008.76 912.107L889.757 1127.44L652.058 1234.98L651.756 1235.13L532.756 1450.46L295.057 1558L294.755 1558.16L175.754 1773.49L75.4562 1818.87H80.2449L177.036 1775.11L177.338 1774.96L296.339 1559.62L534.038 1452.08L534.339 1451.93L653.34 1236.6L891.039 1129.06L891.341 1128.91L1010.34 913.576L1248.04 806.036L1248.34 805.884L1367.34 590.552L1605.04 483.012L1605.34 482.86L1724.34 267.527L1962.04 159.988L1962.35 159.836L2011.02 71.9501V67.5938L1960.87 158.367ZM1901.34 427.596L1782.34 642.928L1544.6 750.468L1544.3 750.62L1425.3 965.953L1187.56 1073.49L1187.26 1073.64L1068.26 1288.98L830.559 1396.52L830.257 1396.67L711.257 1612L473.557 1719.54L473.256 1719.69L418.431 1818.92H420.844L474.877 1721.16L712.576 1613.62L712.878 1613.47L831.916 1398.14L1069.62 1290.6L1069.92 1290.45L1188.96 1075.11L1426.65 967.574L1426.96 967.422L1545.96 752.089L1783.69 644.549L1784 644.397L1903 429.065L2011.06 380.183V378.005L1901.71 427.444L1901.34 427.596ZM1841.84 1665.8L1757.26 1818.82H1759.67L1843.46 1667.21L2011.02 1591.44V1589.26L1842.18 1665.64L1841.84 1665.8ZM1871.59 1692.74L1801.87 1818.87H1804.28L1873.21 1694.21L2011.02 1631.86V1629.68L1871.93 1692.59L1871.59 1692.74ZM1782.34 1611.95L1668.01 1818.82H1670.42L1783.96 1613.37L2011.06 1510.64V1508.46L1782.68 1611.85L1782.34 1611.95ZM1901.34 1719.64L1846.51 1818.87H1848.93L1902.96 1721.11L2011.02 1672.23V1670.05L1901.68 1719.49L1901.34 1719.64ZM1752.89 1584.9L1752.59 1585.05L1633.59 1800.39L1592.79 1818.82H1597.58L1634.87 1801.96L1635.17 1801.8L1754.17 1586.52L1991.87 1478.98L1992.17 1478.83L2010.99 1444.79V1440.43L1990.59 1477.36L1752.89 1584.9ZM1990.62 1800.39L1980.41 1818.82H1982.82L1992.21 1801.8L2011.02 1793.29V1791.12L1990.93 1800.18L1990.62 1800.39ZM1960.87 1773.49L1935.8 1818.87H1938.21L1962.5 1774.96L2011.06 1752.97V1750.79L1961.21 1773.34L1960.87 1773.49ZM1901.34 1073.59L1782.34 1288.93L1544.6 1396.47L1544.3 1396.62L1425.3 1611.95L1187.56 1719.49L1187.26 1719.64L1132.43 1818.87H1134.85L1188.88 1721.11L1426.58 1613.57L1426.88 1613.42L1545.88 1398.09L1783.62 1290.55L1783.92 1290.4L1902.92 1075.06L2010.99 1026.18V1024L1901.64 1073.44L1901.34 1073.59ZM1931.12 1746.59L1891.16 1818.87H1893.57L1932.71 1748.01L2011.02 1712.6V1710.42L1931.43 1746.44L1931.12 1746.59ZM1723.14 1558L1722.84 1558.16L1603.84 1773.49L1503.54 1818.87H1508.33L1605.12 1775.11L1605.42 1774.96L1724.42 1559.62L1962.12 1452.08L1962.42 1451.93L2010.99 1364.05V1359.69L1960.84 1450.46L1723.14 1558ZM1812.09 992.85L1693.09 1208.18L1455.39 1315.72L1455.08 1315.87L1336.08 1531.21L1098.35 1638.75L1098.05 1638.9L998.577 1818.87H1000.91L1099.59 1640.37L1337.29 1532.83L1337.59 1532.68L1456.59 1317.34L1694.29 1209.8L1694.59 1209.65L1813.59 994.319L2010.91 905.066V902.888L1812.31 992.749L1812.09 992.85ZM1871.59 1046.7L1752.59 1262.03L1514.85 1369.57L1514.55 1369.72L1395.55 1585.05L1157.85 1692.59L1157.55 1692.74L1087.83 1818.87H1090.24L1159.13 1694.21L1396.83 1586.62L1397.13 1586.47L1516.13 1371.14L1753.87 1263.6L1754.17 1263.45L1873.17 1048.11L2010.99 985.759V983.58L1871.93 1046.54L1871.59 1046.7ZM1841.84 1019.8L1722.84 1235.13L1485.14 1342.67L1484.83 1342.82L1365.83 1558.16L1128.14 1665.69L1127.83 1665.85L1043.26 1818.87H1045.67L1129.45 1667.27L1367.15 1559.73L1367.46 1559.57L1486.46 1344.24L1724.16 1236.7L1724.46 1236.55L1843.46 1021.22L2011.02 945.438V943.259L1842.18 1019.65L1841.84 1019.8ZM1782.34 965.953L1663.34 1181.29L1425.64 1288.82L1425.33 1288.98L1306.33 1504.31L1068.56 1611.85L1068.26 1612L953.933 1818.87H956.346L1069.88 1613.42L1307.62 1505.88L1307.92 1505.73L1426.92 1290.4L1664.62 1182.86L1664.92 1182.7L1783.92 967.371L2011.02 864.644V862.465L1782.68 965.75L1782.34 965.953ZM1693.39 1531.05L1693.09 1531.21L1574.05 1746.59L1414.25 1818.87H1419.04L1575.33 1748.16L1575.63 1748.01L1694.63 1532.68L1932.33 1425.14L1932.63 1424.98L2010.95 1283.3V1278.95L1931.05 1423.52L1693.39 1531.05ZM1663.64 1504.16L1663.34 1504.31L1544.34 1719.64L1325 1818.87H1329.79L1545.58 1721.26L1545.88 1721.11L1664.88 1505.78L1902.58 1398.24L1902.88 1398.09L2010.95 1202.56V1198.2L1901.3 1396.62L1663.64 1504.16ZM1812.09 1638.9L1712.62 1818.87H1715.03L1813.71 1640.37L2011.02 1551.06V1548.89L1812.43 1638.75L1812.09 1638.9ZM147.437 778.936L385.174 671.447L385.476 671.295L504.476 455.962L742.176 348.423L742.477 348.271L861.515 132.938L1099.21 25.3986L1099.52 25.2466L1109.73 6.7577H1107.32L1097.93 23.7776L860.271 131.317L859.969 131.469L740.969 346.802L503.27 454.341L502.968 454.493L383.892 669.826L146.193 777.366L145.891 777.518L26.8531 992.85L8.03771 1001.36V1003.54L28.4367 994.319L147.437 778.936ZM87.9369 1048.11L206.937 832.782L444.637 725.242L444.938 725.09L563.939 509.758L801.638 402.218L801.94 402.066L920.94 186.733L1158.64 79.1937L1158.94 79.0418L1198.91 6.7577H1196.5L1157.32 77.6234L919.771 185.163L919.47 185.315L800.469 400.648L562.77 508.187L562.468 508.339L443.468 723.672L205.693 831.211L205.391 831.363L86.3533 1046.7L8.03771 1082.1V1084.28L87.6353 1048.27L87.9369 1048.11ZM295.886 1236.7L296.188 1236.55L415.188 1021.22L652.887 913.677L653.189 913.525L772.19 698.193L1009.89 590.653L1010.19 590.501L1129.19 375.168L1366.89 267.629L1367.19 267.477L1486.19 52.1442L1586.53 6.7577H1581.74L1484.91 50.5739L1484.61 50.7259L1365.61 266.058L1127.91 373.598L1127.61 373.75L1008.61 589.083L770.908 696.622L770.606 696.774L651.605 912.107L413.906 1019.65L413.605 1019.8L294.604 1235.13L56.9048 1342.67L56.6032 1342.82L8.03771 1430.71V1435.06L58.1868 1344.29L295.886 1236.7ZM266.136 1209.8L266.438 1209.65L385.438 994.319L623.137 886.78L623.439 886.628L742.439 671.295L980.176 563.755L980.478 563.603L1099.48 348.271L1337.18 240.731L1337.48 240.579L1456.48 25.2466L1497.32 6.7577H1492.53L1455.24 23.6257L1454.93 23.7776L1335.9 239.11L1098.2 346.65L1097.89 346.802L978.894 562.134L741.271 669.674L740.969 669.826L621.968 885.159L384.231 992.698L383.93 992.85L264.929 1208.18L27.2301 1315.72L26.9285 1315.87L8.11312 1349.91V1354.27L28.5121 1317.34L266.136 1209.8ZM69.2724 6.7577H64.446L27.1547 23.6257L26.8531 23.7776L8.03771 57.8175V62.1738L28.4367 25.2466L69.2724 6.7577ZM177.187 1128.91L296.188 913.576L533.887 806.036L534.189 805.884L653.189 590.552L890.888 483.012L891.19 482.86L1010.23 267.527L1247.93 159.988L1248.23 159.836L1332.8 6.7577H1330.39L1246.76 158.367L1009.06 265.906L1008.76 266.058L889.72 481.391L652.02 588.931L651.719 589.083L532.718 804.415L295.019 911.955L294.717 912.107L175.717 1127.44L8.15082 1203.22V1205.4L176.999 1129.01L177.187 1128.91ZM147.437 1101.96L266.438 886.628L504.175 779.088L504.476 778.936L623.477 563.603L861.176 456.064L861.478 455.912L980.478 240.579L1218.18 133.04L1218.48 132.888L1288.2 6.7577H1285.78L1216.86 131.469L979.158 239.009L978.857 239.161L859.856 454.493L622.157 562.033L621.855 562.185L502.855 777.518L265.118 885.057L264.816 885.209L145.816 1100.54L8 1162.9V1165.08L147.098 1102.16L147.437 1101.96ZM117.687 1075.06L236.688 859.73L474.425 752.19L474.726 752.038L593.727 536.706L831.426 429.166L831.728 429.014L950.728 213.682L1188.43 106.142L1188.73 105.99L1243.55 6.7577H1241.14L1187.11 104.521L949.521 212.061L949.22 212.213L830.219 427.545L592.52 535.085L592.218 535.237L473.218 750.569L235.443 858.109L235.142 858.261L116.141 1073.59L8.07541 1122.48V1124.65L117.423 1075.21L117.687 1075.06ZM87.9369 1694.16L206.975 1478.83L444.674 1371.29L444.976 1371.14L563.976 1155.81L801.676 1048.27L801.977 1048.11L920.978 832.782L1158.68 725.242L1158.98 725.09L1277.98 509.758L1515.68 402.218L1515.98 402.066L1634.98 186.733L1872.72 79.1937L1873.02 79.0418L1912.99 6.7577H1910.57L1871.44 77.6234L1633.89 185.163L1633.59 185.315L1514.59 400.648L1276.89 508.187L1276.58 508.339L1157.58 723.672L919.884 831.211L919.583 831.363L800.582 1046.7L562.883 1154.24L562.581 1154.39L443.581 1369.72L205.693 1477.26L205.391 1477.41L86.3533 1692.74L8.03771 1728.15V1730.33L87.6353 1694.31L87.9369 1694.16ZM58.1868 1667.27L177.187 1451.93L414.887 1344.39L415.188 1344.24L534.189 1128.91L771.888 1021.37L772.19 1021.22L891.19 805.884L1128.89 698.345L1129.19 698.193L1248.19 482.86L1485.89 375.32L1486.19 375.168L1605.19 159.836L1842.89 52.2962L1843.19 52.1442L1868.27 6.7577H1865.86L1841.57 50.6752L1604.14 158.266L1603.84 158.417L1484.83 373.75L1247.14 481.29L1246.83 481.442L1127.83 696.774L890.134 804.314L889.833 804.466L770.832 1019.8L533.133 1127.34L532.831 1127.49L413.831 1342.82L176.132 1450.36L175.83 1450.51L56.8294 1665.85L8.26394 1687.83V1690.01L58.1114 1667.47L58.1868 1667.27ZM147.437 1424.98L385.136 1317.44L385.438 1317.29L504.439 1101.96L742.138 994.42L742.439 994.269L861.44 778.936L1099.14 671.396L1099.44 671.244L1218.44 455.912L1456.14 348.372L1456.44 348.22L1575.44 132.888L1813.14 25.3479L1813.44 25.196L1823.66 6.70703H1821.25L1811.86 23.727L1574.16 131.267L1574.05 131.469L1455.05 346.802L1217.31 454.341L1217.01 454.493L1097.97 669.826L860.271 777.366L859.969 777.518L740.969 992.85L503.27 1100.39L502.968 1100.54L383.968 1315.87L146.155 1423.41L145.854 1423.57L26.8153 1638.9L8 1647.41V1649.59L28.399 1640.37L147.437 1424.98ZM325.636 1263.65L325.938 1263.5L444.938 1048.16L682.638 940.625L682.939 940.473L801.94 725.141L1039.64 617.601L1039.94 617.449L1158.94 402.117L1396.83 294.577L1397.13 294.425L1516.13 79.0924L1675.97 6.80834H1671.18L1514.85 77.4715L1514.55 77.6234L1395.55 292.956L1157.85 400.496L1157.55 400.648L1038.47 615.98L800.771 723.52L800.469 723.672L681.469 939.004L443.769 1046.54L443.468 1046.7L324.467 1262.03L86.6549 1369.57L86.3533 1369.72L8.03771 1511.4V1515.76L87.9369 1371.19L325.636 1263.65ZM147.437 1748.01L266.438 1532.68L504.175 1425.14L504.476 1424.98L623.477 1209.65L861.176 1102.11L861.478 1101.96L980.516 886.628L1218.22 779.088L1218.52 778.936L1337.52 563.603L1575.22 456.064L1575.52 455.912L1694.52 240.579L1932.22 133.04L1932.52 132.888L2002.24 6.7577H1999.82L1931.12 131.469L1693.43 239.009L1693.12 239.161L1574.05 454.493L1336.35 562.033L1336.05 562.185L1217.05 777.518L979.347 885.057L979.045 885.209L860.007 1100.54L622.308 1208.08L622.006 1208.23L503.006 1423.57L265.269 1531.11L264.967 1531.26L145.854 1746.59L8.03771 1808.95V1811.12L147.136 1748.21L147.437 1748.01ZM355.424 1290.55L355.726 1290.4L474.726 1075.06L712.425 967.523L712.727 967.371L831.728 752.038L1069.43 644.499L1069.73 644.347L1188.73 429.014L1426.43 321.475L1426.73 321.323L1545.73 105.99L1765.07 6.7577H1760.28L1544.64 104.42L1544.34 104.572L1425.33 319.904L1187.56 427.444L1187.26 427.596L1068.26 642.928L830.559 750.468L830.257 750.62L711.257 965.953L473.557 1073.49L473.256 1073.64L354.255 1288.98L116.556 1396.52L116.254 1396.67L8.18853 1592.2V1596.55L117.838 1398.14L355.424 1290.55ZM206.975 1155.81L325.976 940.473L563.675 832.934L563.976 832.782L682.977 617.449L920.676 509.909L920.978 509.758L1039.98 294.425L1277.68 186.885L1277.98 186.733L1377.45 6.7577H1375.03L1276.51 185.315L1038.81 292.855L1038.51 293.007L919.47 508.339L681.77 615.879L681.469 616.031L562.468 831.363L324.769 938.903L324.467 939.055L205.467 1154.39L8.11312 1243.64V1245.82L206.636 1155.96L206.975 1155.81ZM117.687 1721.11L236.688 1505.78L474.425 1398.24L474.726 1398.09L593.727 1182.75L831.426 1075.21L831.728 1075.06L950.728 859.73L1188.43 752.19L1188.73 752.038L1307.73 536.706L1545.43 429.166L1545.73 429.014L1664.92 213.682L1902.62 106.142L1902.92 105.99L1957.74 6.7577H1955.33L1901.3 104.521L1663.64 212.061L1663.34 212.213L1544.3 427.545L1306.6 535.085L1306.3 535.237L1187.3 750.569L949.597 858.109L949.295 858.261L830.295 1073.59L592.595 1181.13L592.181 1181.29L473.18 1396.62L235.443 1504.16L235.142 1504.31L116.141 1719.64L8.07541 1768.52V1770.7L117.423 1721.26L117.687 1721.11ZM58.1868 1021.22L177.187 805.884L414.887 698.345L415.188 698.193L534.189 482.86L771.888 375.32L772.19 375.168L891.19 159.836L1128.89 52.2962L1129.19 52.1442L1154.27 6.7577H1151.85L1127.57 50.6752L890.021 158.266L889.72 158.417L770.719 373.75L532.982 481.29L532.68 481.442L413.68 696.774L175.981 804.314L175.679 804.466L56.6786 1019.8L8.11312 1041.78V1043.96L57.9606 1021.42L58.1868 1021.22ZM117.687 429.014L236.725 213.682L474.462 106.142L474.764 105.99L529.589 6.7577H527.175L473.142 104.521L235.443 212.061L235.104 212.213L116.103 427.596L8.03771 476.478V478.656L117.385 429.217L117.687 429.014ZM177.187 482.86L296.188 267.527L533.887 159.988L534.189 159.836L618.763 6.7577H616.35L532.643 158.367L294.943 265.906L294.642 266.058L175.604 481.391L8.03771 557.221V559.399L176.886 483.012L177.187 482.86ZM206.975 509.758L325.976 294.425L563.675 186.885L563.976 186.733L663.445 6.7577H661.032L562.431 185.315L324.694 292.855L324.392 293.007L205.354 508.339L8 597.593V599.771L206.598 509.909L206.975 509.758ZM147.437 455.912L266.438 240.579L504.175 133.04L504.476 132.888L574.195 6.7577H571.782L502.855 131.469L265.193 239.009L264.892 239.161L145.854 454.493L8.03771 516.849V519.027L147.136 456.114L147.437 455.912ZM236.725 536.706L355.726 321.373L593.425 213.834L593.727 213.682L708.089 6.80834H705.676L592.181 212.213L354.444 319.752L354.142 319.904L235.104 535.237L8 637.964V640.142L236.348 536.858L236.725 536.706ZM158.523 6.7577H153.734L56.9048 50.5739L56.6032 50.7259L8.03771 138.561V142.917L58.1868 52.1442L158.523 6.7577ZM337.061 6.7577H332.272L116.405 104.42L116.103 104.572L8.03771 300.098V304.455L117.687 106.041L337.061 6.7577ZM247.773 6.7577H242.984L86.6549 77.4715L86.3533 77.6234L8.03771 219.355V223.711L87.9369 79.0924L247.773 6.7577ZM266.136 563.755L266.438 563.603L385.438 348.271L623.137 240.731L623.439 240.579L742.439 25.2466L783.275 6.7577H778.487L741.195 23.6257L740.894 23.7776L621.893 239.11L384.194 346.65L383.892 346.802L264.854 562.185L27.1547 669.674L26.8531 669.826L8.03771 703.866V708.222L28.4367 671.295L266.136 563.755ZM87.9369 402.117L206.975 186.733L444.674 79.1937L444.976 79.0418L484.945 6.7577H482.531L443.355 77.6234L205.693 185.163L205.391 185.315L86.3533 400.648L8.03771 436.055V438.233L87.6353 402.218L87.9369 402.117ZM355.424 644.499L355.726 644.347L474.726 429.014L712.425 321.475L712.727 321.323L831.728 105.99L1051.06 6.7577H1046.28L830.446 104.369L830.144 104.521L711.143 319.854L473.444 427.393L473.142 427.545L354.142 642.928L116.443 750.468L116.141 750.62L8.07541 946.147V950.503L117.725 752.089L355.424 644.499ZM295.886 590.653L296.188 590.501L415.188 375.168L652.887 267.629L653.189 267.477L772.19 52.1442L872.526 6.7577H867.737L770.908 50.5739L770.606 50.7259L651.605 266.058L413.944 373.598L413.642 373.75L294.604 589.083L56.9048 696.622L56.6032 696.774L8.03771 784.66V789.016L58.1868 698.243L295.886 590.653ZM325.636 617.601L325.976 617.449L445.014 402.117L682.713 294.577L683.015 294.425L802.015 79.0924L961.851 6.80834H957.063L800.733 77.5221L800.431 77.6741L681.431 293.007L443.732 400.546L443.43 400.698L324.392 615.98L86.6549 723.52L86.3533 723.672L8.03771 865.353V869.709L87.9369 725.141L325.636 617.601ZM58.1868 375.168L177.187 159.836L414.887 52.2962L415.188 52.1442L440.263 6.7577H437.85L413.567 50.6752L175.943 158.266L175.641 158.417L56.6032 373.75L8.03771 395.734V397.912L57.8852 375.371L58.1868 375.168ZM147.437 132.938L385.174 25.3986L385.476 25.2466L395.694 6.7577H393.281L383.892 23.7776L146.155 131.317L145.854 131.469L26.8531 346.802L8.03771 355.312V357.49L28.4367 348.271L147.437 132.938ZM236.725 1182.7L355.726 967.371L593.425 859.831L593.727 859.679L712.765 644.347L950.464 536.807L950.766 536.655L1069.77 321.323L1307.5 213.783L1307.8 213.631L1422.17 6.7577H1419.75L1306.26 212.213L1068.56 319.752L1068.26 319.904L949.257 535.237L711.52 642.776L711.219 642.928L592.218 858.261L354.519 965.801L354.217 965.953L235.104 1181.29L8 1284.01V1286.19L236.348 1182.91L236.725 1182.7Z" fill="#13C4A1"/>
<path d="M1706.17 900.049L1705.87 900.201L1586.83 1115.53L1349.13 1223.07L1348.83 1223.23L1229.83 1438.56L992.128 1546.1L991.827 1546.25L872.826 1761.58L712.99 1833.87H717.779L874.07 1763.15L874.372 1763L993.41 1547.67L1231.11 1440.13L1231.41 1439.98L1350.45 1224.64L1588.15 1117.1L1588.45 1116.95L1707.45 901.62L1945.15 794.08L1945.45 793.928L2023.77 652.247V647.891L1943.87 792.459L1706.17 900.049ZM1676.42 873.101L1676.12 873.253L1557.12 1088.59L1319.42 1196.13L1319.12 1196.28L1200.12 1411.61L962.416 1519.15L962.114 1519.3L843.114 1734.63L623.777 1833.87H628.566L844.358 1736.26L844.66 1736.1L963.66 1520.77L1201.36 1413.23L1201.66 1413.08L1320.66 1197.75L1558.36 1090.21L1558.66 1090.05L1677.66 874.722L1915.36 767.182L1915.66 767.031L2023.73 571.504V567.148L1914.08 765.562L1676.42 873.101ZM1795.12 334.896L1676.12 550.229L1438.42 657.769L1438.12 657.921L1319.12 873.253L1081.42 980.793L1081.11 980.945L962.001 1196.28L724.264 1303.82L723.962 1303.97L604.962 1519.3L367.225 1626.84L366.923 1626.99L252.598 1833.87H255.012L368.545 1628.41L606.244 1520.87L606.546 1520.72L725.546 1305.39L963.245 1197.85L963.547 1197.7L1082.55 982.363L1320.28 874.823L1320.59 874.671L1439.66 659.339L1677.36 551.799L1677.66 551.647L1796.66 336.315L2023.77 233.587V231.46L1795.42 334.744L1795.12 334.896ZM1824.87 361.794L1705.87 577.127L1468.13 684.666L1467.83 684.818L1348.83 900.151L1111.09 1007.69L1110.79 1007.84L991.789 1223.17L754.052 1330.71L753.75 1330.87L634.75 1546.2L397.013 1653.74L396.711 1653.89L297.242 1833.87H299.656L398.332 1655.36L636.032 1547.82L636.333 1547.67L755.334 1332.34L993.071 1224.8L993.372 1224.64L1112.37 1009.31L1350.07 901.772L1350.37 901.62L1469.41 686.287L1707.11 578.748L1707.41 578.596L1826.45 363.263L2023.77 274.01V271.831L1825.17 361.693L1824.87 361.794ZM1973.66 1142.43L1854.66 1357.76L1616.96 1465.3L1616.65 1465.46L1497.65 1680.79L1259.95 1788.33L1259.65 1788.48L1234.58 1833.87H1236.99L1261.27 1789.95L1498.97 1682.41L1499.28 1682.26L1618.28 1466.92L1855.97 1359.39L1856.28 1359.23L1975.28 1143.9L2023.84 1121.92V1119.74L1974 1142.28L1973.66 1142.43ZM2003.41 1169.38L1884.41 1384.71L1646.71 1492.25L1646.4 1492.4L1527.4 1707.74L1289.7 1815.28L1289.4 1815.43L1279.18 1833.87H1281.6L1290.99 1816.85L1528.69 1709.31L1528.99 1709.15L1647.99 1493.82L1885.73 1386.28L1886.03 1386.13L2005.03 1170.8L2023.84 1162.29V1160.11L2003.75 1169.18L2003.41 1169.38ZM1765.67 953.845L1765.37 953.997L1646.37 1169.33L1408.67 1276.87L1408.37 1277.02L1289.37 1492.35L1051.67 1599.89L1051.36 1600.04L932.364 1815.38L891.566 1833.82H896.355L933.646 1816.95L933.948 1816.8L1052.87 1601.51L1290.57 1493.97L1290.87 1493.82L1409.87 1278.49L1647.61 1170.95L1647.91 1170.8L1766.91 955.466L2004.61 847.926L2004.91 847.774L2023.73 813.734V809.378L2003.33 846.305L1765.67 953.845ZM1735.92 926.947L1735.62 927.099L1616.62 1142.43L1378.92 1249.97L1378.62 1250.12L1259.62 1465.46L1021.92 1573L1021.61 1573.15L902.614 1788.48L802.316 1833.87H807.104L903.896 1790.1L904.198 1789.95L1023.2 1574.62L1260.9 1467.08L1261.2 1466.92L1380.2 1251.59L1617.9 1144.05L1618.2 1143.9L1737.2 928.568L1974.9 821.028L1975.2 820.876L2023.77 732.991V728.634L1973.62 819.407L1735.92 926.947ZM1943.91 469.486L1824.91 684.818L1587.21 792.358L1586.9 792.51L1467.9 1007.84L1230.2 1115.38L1229.9 1115.53L1110.9 1330.87L873.052 1438.41L872.751 1438.56L753.75 1653.89L516.051 1761.43L515.749 1761.58L475.781 1833.87H478.194L517.333 1763L755.032 1655.46L755.334 1655.31L874.334 1439.98L1112.03 1332.44L1112.34 1332.28L1231.34 1116.95L1469.03 1009.41L1469.34 1009.26L1588.34 793.928L1826.04 686.388L1826.34 686.237L1945.34 470.904L2023.65 435.496V433.318L1944.06 469.334L1943.91 469.486ZM2003.41 523.331L1884.41 738.664L1646.71 846.204L1646.4 846.356L1527.4 1061.69L1289.7 1169.23L1289.4 1169.38L1170.36 1384.71L932.666 1492.25L932.364 1492.4L813.364 1707.74L575.664 1815.28L575.363 1815.43L565.144 1833.87H567.557L576.946 1816.85L814.646 1709.31L814.947 1709.15L933.948 1493.82L1171.65 1386.28L1171.95 1386.13L1290.99 1170.8L1528.69 1063.26L1528.99 1063.11L1647.99 847.774L1885.73 740.234L1886.03 740.082L2005.03 524.75L2023.84 516.24V514.062L2003.75 523.129L2003.41 523.331ZM1973.66 496.383L1854.66 711.716L1616.96 819.255L1616.65 819.407L1497.65 1034.74L1259.95 1142.28L1259.65 1142.43L1140.65 1357.76L902.953 1465.3L902.652 1465.46L783.651 1680.79L545.952 1788.33L545.65 1788.48L520.576 1833.87H522.989L547.272 1789.95L784.971 1682.41L785.272 1682.26L904.273 1466.92L1141.97 1359.39L1142.27 1359.23L1261.27 1143.9L1498.97 1036.36L1499.28 1036.21L1618.28 820.876L1855.97 713.337L1856.28 713.185L1975.28 497.852L2023.84 475.868V473.69L1974 496.231L1973.66 496.383ZM1854.62 388.742L1735.58 604.075L1497.88 711.614L1497.58 711.766L1378.58 927.099L1140.88 1034.64L1140.58 1034.79L1021.58 1250.12L783.877 1357.66L783.576 1357.81L664.575 1573.15L426.876 1680.69L426.574 1680.84L342 1833.87H344.413L428.196 1682.26L665.895 1574.72L666.197 1574.57L785.197 1359.23L1022.9 1251.69L1023.2 1251.54L1142.2 1036.21L1379.9 928.669L1380.2 928.517L1499.2 713.185L1736.9 605.645L1737.2 605.493L1856.2 390.161L2023.77 314.381V312.203L1854.92 388.59L1854.62 388.742ZM1765.67 307.847L1765.37 307.999L1646.37 523.331L1408.67 630.871L1408.37 631.023L1289.37 846.356L1051.67 953.895L1051.36 954.047L932.364 1169.38L694.665 1276.92L694.363 1277.07L575.363 1492.4L337.663 1599.94L337.362 1600.1L218.361 1815.43L177.563 1833.87H182.352L219.643 1817L219.945 1816.85L338.757 1601.51L576.456 1493.97L576.758 1493.82L695.758 1278.49L933.533 1170.95L933.835 1170.8L1052.83 955.466L1290.53 847.926L1290.84 847.774L1409.84 632.441L1647.54 524.902L1647.84 524.75L1766.84 309.417L2004.54 201.878L2004.84 201.726L2023.65 167.686V163.329L2003.26 200.257L1765.67 307.847ZM1884.37 415.64L1765.37 630.972L1527.63 738.512L1527.33 738.664L1408.33 953.997L1170.63 1061.54L1170.33 1061.69L1051.33 1277.02L813.628 1384.56L813.326 1384.71L694.325 1600.04L456.626 1707.58L456.324 1707.74L386.606 1833.87H389.019L457.908 1709.21L695.607 1601.67L695.909 1601.51L814.909 1386.18L1052.61 1278.64L1052.91 1278.49L1171.91 1063.16L1409.61 955.618L1409.91 955.466L1528.91 740.133L1766.65 632.593L1766.95 632.441L1885.95 417.109L2023.77 354.753V352.575L1884.71 415.488L1884.37 415.64ZM1943.91 1115.53L1824.91 1330.87L1587.21 1438.41L1586.9 1438.56L1467.9 1653.89L1230.17 1761.43L1229.87 1761.58L1189.9 1833.87H1192.31L1231.45 1763L1469.15 1655.46L1469.45 1655.31L1588.45 1439.98L1826.15 1332.44L1826.45 1332.28L1945.45 1116.95L2023.77 1081.54V1079.37L1944.17 1115.38L1943.91 1115.53ZM1973.66 173.359L1735.96 280.899L1735.65 281.051L1616.65 496.383L1378.96 603.923L1378.65 604.075L1259.54 819.407L1021.84 926.947L1021.54 927.099L902.538 1142.43L664.839 1249.97L664.538 1250.12L545.537 1465.46L307.838 1573L307.536 1573.15L188.536 1788.48L88.2375 1833.87H93.0261L189.818 1790.1L190.119 1789.95L309.12 1574.62L546.819 1467.08L547.121 1466.92L666.121 1251.59L903.82 1144.05L904.122 1143.9L1023.12 928.568L1260.82 821.028L1261.12 820.876L1380.12 605.544L1617.82 498.004L1618.12 497.852L1737.13 282.52L1974.82 174.98L1975.13 174.828L2023.8 86.9423V82.586L1973.66 173.359ZM1914.12 442.588L1795.12 657.921L1557.38 765.46L1557.08 765.612L1438.08 980.945L1200.34 1088.48L1200.04 1088.64L1081.04 1303.97L843.34 1411.51L843.038 1411.66L724.038 1626.99L486.339 1734.53L486.037 1734.68L431.212 1833.92H433.625L487.658 1736.15L725.357 1628.61L725.659 1628.46L844.697 1413.13L1082.4 1305.59L1082.7 1305.44L1201.74 1090.11L1439.44 982.566L1439.74 982.414L1558.74 767.081L1796.47 659.542L1796.78 659.39L1915.78 444.057L2023.84 395.175V392.997L1914.49 442.436L1914.12 442.588ZM1854.62 1680.79L1770.04 1833.82H1772.46L1856.24 1682.21L2023.8 1606.43V1604.25L1854.96 1680.64L1854.62 1680.79ZM1884.37 1707.74L1814.65 1833.87H1817.06L1885.99 1709.21L2023.8 1646.85V1644.67L1884.71 1707.58L1884.37 1707.74ZM1795.12 1626.94L1680.79 1833.82H1683.21L1796.74 1628.36L2023.84 1525.63V1523.46L1795.46 1626.84L1795.12 1626.94ZM1914.12 1734.63L1859.29 1833.87H1861.71L1915.74 1736.1L2023.8 1687.22V1685.04L1914.46 1734.48L1914.12 1734.63ZM1765.67 1599.89L1765.37 1600.04L1646.37 1815.38L1605.57 1833.82H1610.36L1647.65 1816.95L1647.95 1816.8L1766.95 1601.51L2004.65 1493.97L2004.95 1493.82L2023.77 1459.78V1455.43L2003.37 1492.35L1765.67 1599.89ZM2003.41 1815.38L1993.19 1833.82H1995.6L2004.99 1816.8L2023.8 1808.29V1806.11L2003.71 1815.17L2003.41 1815.38ZM1973.66 1788.48L1948.58 1833.87H1950.99L1975.28 1789.95L2023.84 1767.96V1765.79L1974 1788.33L1973.66 1788.48ZM1914.12 1088.59L1795.12 1303.92L1557.38 1411.46L1557.08 1411.61L1438.08 1626.94L1200.34 1734.48L1200.04 1734.63L1145.21 1833.87H1147.63L1201.66 1736.1L1439.36 1628.56L1439.66 1628.41L1558.66 1413.08L1796.4 1305.54L1796.7 1305.39L1915.7 1090.05L2023.77 1041.17V1038.99L1914.42 1088.43L1914.12 1088.59ZM1943.91 1761.58L1903.94 1833.87H1906.35L1945.49 1763L2023.8 1727.59V1725.41L1944.21 1761.43L1943.91 1761.58ZM1735.92 1573L1735.62 1573.15L1616.62 1788.48L1516.32 1833.87H1521.11L1617.9 1790.1L1618.2 1789.95L1737.2 1574.62L1974.9 1467.08L1975.2 1466.92L2023.77 1379.04V1374.68L1973.62 1465.46L1735.92 1573ZM1824.87 1007.84L1705.87 1223.17L1468.17 1330.71L1467.87 1330.87L1348.87 1546.2L1111.13 1653.74L1110.83 1653.89L1011.36 1833.87H1013.7L1112.37 1655.36L1350.07 1547.82L1350.37 1547.67L1469.37 1332.34L1707.07 1224.8L1707.38 1224.64L1826.38 1009.31L2023.69 920.058V917.88L1825.09 1007.74L1824.87 1007.84ZM1884.37 1061.69L1765.37 1277.02L1527.63 1384.56L1527.33 1384.71L1408.33 1600.04L1170.63 1707.58L1170.33 1707.74L1100.61 1833.87H1103.02L1171.91 1709.21L1409.61 1601.62L1409.91 1601.46L1528.91 1386.13L1766.65 1278.59L1766.95 1278.44L1885.95 1063.11L2023.77 1000.75V998.573L1884.71 1061.54L1884.37 1061.69ZM1854.62 1034.79L1735.62 1250.12L1497.92 1357.66L1497.62 1357.81L1378.62 1573.15L1140.92 1680.69L1140.61 1680.84L1056.04 1833.87H1058.45L1142.24 1682.26L1379.94 1574.72L1380.24 1574.57L1499.24 1359.23L1736.94 1251.69L1737.24 1251.54L1856.24 1036.21L2023.8 960.43V958.252L1854.96 1034.64L1854.62 1034.79ZM1795.12 980.945L1676.12 1196.28L1438.42 1303.82L1438.12 1303.97L1319.12 1519.3L1081.34 1626.84L1081.04 1626.99L966.714 1833.87H969.127L1082.66 1628.41L1320.4 1520.87L1320.7 1520.72L1439.7 1305.39L1677.4 1197.85L1677.7 1197.7L1796.7 982.363L2023.8 879.636V877.458L1795.46 980.742L1795.12 980.945ZM1706.17 1546.05L1705.87 1546.2L1586.83 1761.58L1427.03 1833.87H1431.82L1588.11 1763.15L1588.41 1763L1707.41 1547.67L1945.11 1440.13L1945.41 1439.98L2023.73 1298.3V1293.94L1943.83 1438.51L1706.17 1546.05ZM1676.42 1519.15L1676.12 1519.3L1557.12 1734.63L1337.78 1833.87H1342.57L1558.36 1736.26L1558.66 1736.1L1677.66 1520.77L1915.36 1413.23L1915.66 1413.08L2023.73 1217.55V1213.2L1914.08 1411.61L1676.42 1519.15ZM1824.87 1653.89L1725.4 1833.87H1727.81L1826.49 1655.36L2023.8 1566.06V1563.88L1825.21 1653.74L1824.87 1653.89ZM160.218 793.928L397.955 686.439L398.257 686.287L517.258 470.955L754.957 363.415L755.258 363.263L874.297 147.93L1112 40.3908L1112.3 40.2388L1122.52 21.7499H1120.1L1110.71 38.7698L873.052 146.309L872.751 146.461L753.75 361.794L516.051 469.334L515.749 469.486L396.673 684.818L158.974 792.358L158.672 792.51L39.6343 1007.84L20.819 1016.35V1018.53L41.218 1009.31L160.218 793.928ZM100.718 1063.11L219.719 847.774L457.418 740.234L457.72 740.082L576.72 524.75L814.419 417.21L814.721 417.058L933.721 201.726L1171.42 94.1859L1171.72 94.0339L1211.69 21.7499H1209.28L1170.1 92.6156L932.553 200.155L932.251 200.307L813.25 415.64L575.551 523.179L575.25 523.331L456.249 738.664L218.474 846.204L218.173 846.356L99.1345 1061.69L20.819 1097.1V1099.27L100.417 1063.26L100.718 1063.11ZM308.667 1251.69L308.969 1251.54L427.969 1036.21L665.669 928.669L665.97 928.517L784.971 713.185L1022.67 605.645L1022.97 605.493L1141.97 390.161L1379.67 282.621L1379.97 282.469L1498.97 67.1364L1599.31 21.7499H1594.52L1497.69 65.5661L1497.39 65.718L1378.39 281.051L1140.69 388.59L1140.39 388.742L1021.39 604.075L783.689 711.614L783.387 711.766L664.387 927.099L426.687 1034.64L426.386 1034.79L307.385 1250.12L69.6861 1357.66L69.3844 1357.81L20.819 1445.7V1450.06L70.9681 1359.28L308.667 1251.69ZM278.917 1224.8L279.219 1224.64L398.219 1009.31L635.919 901.772L636.22 901.62L755.221 686.287L992.958 578.748L993.259 578.596L1112.26 363.263L1349.96 255.723L1350.26 255.571L1469.26 40.2388L1510.1 21.7499H1505.31L1468.02 38.6178L1467.72 38.7698L1348.68 254.102L1110.98 361.642L1110.68 361.794L991.676 577.127L754.052 684.666L753.75 684.818L634.75 900.151L397.013 1007.69L396.711 1007.84L277.711 1223.17L40.0114 1330.71L39.7097 1330.87L20.8944 1364.91V1369.26L41.2934 1332.34L278.917 1224.8ZM82.0537 21.7499H77.2273L39.936 38.6178L39.6343 38.7698L20.819 72.8097V77.166L41.218 40.2388L82.0537 21.7499ZM189.969 1143.9L308.969 928.568L546.668 821.028L546.97 820.876L665.97 605.544L903.67 498.004L903.971 497.852L1023.01 282.52L1260.71 174.98L1261.01 174.828L1345.59 21.7499H1343.17L1259.54 173.359L1021.84 280.899L1021.54 281.051L902.501 496.383L664.802 603.923L664.5 604.075L545.499 819.407L307.8 926.947L307.498 927.099L188.498 1142.43L20.9321 1218.21V1220.39L189.78 1144L189.969 1143.9ZM160.218 1116.95L279.219 901.62L516.956 794.08L517.258 793.928L636.258 578.596L873.957 471.056L874.259 470.904L993.259 255.571L1230.96 148.032L1231.26 147.88L1300.98 21.7499H1298.57L1229.64 146.461L991.94 254.001L991.638 254.153L872.638 469.486L634.938 577.025L634.637 577.177L515.636 792.51L277.899 900.049L277.598 900.201L158.597 1115.53L20.7812 1177.89V1180.07L159.879 1117.15L160.218 1116.95ZM130.468 1090.05L249.469 874.722L487.206 767.182L487.507 767.031L606.508 551.698L844.207 444.158L844.509 444.006L963.509 228.674L1201.21 121.134L1201.51 120.982L1256.33 21.7499H1253.92L1199.89 119.513L962.303 227.053L962.001 227.205L843.001 442.537L605.301 550.077L605 550.229L485.999 765.562L248.224 873.101L247.923 873.253L128.922 1088.59L20.8567 1137.47V1139.65L130.204 1090.21L130.468 1090.05ZM100.718 1709.15L219.756 1493.82L457.456 1386.28L457.757 1386.13L576.758 1170.8L814.457 1063.26L814.759 1063.11L933.759 847.774L1171.46 740.234L1171.76 740.082L1290.76 524.75L1528.46 417.21L1528.76 417.058L1647.76 201.726L1885.5 94.1859L1885.8 94.0339L1925.77 21.7499H1923.36L1884.22 92.6156L1646.67 200.155L1646.37 200.307L1527.37 415.64L1289.67 523.179L1289.37 523.331L1170.36 738.664L932.666 846.204L932.364 846.356L813.364 1061.69L575.664 1169.23L575.363 1169.38L456.362 1384.71L218.474 1492.25L218.173 1492.4L99.1345 1707.74L20.819 1743.14V1745.32L100.417 1709.31L100.718 1709.15ZM70.9681 1682.26L189.969 1466.92L427.668 1359.39L427.969 1359.23L546.97 1143.9L784.669 1036.36L784.971 1036.21L903.971 820.876L1141.67 713.337L1141.97 713.185L1260.97 497.852L1498.67 390.313L1498.97 390.161L1617.97 174.828L1855.67 67.2883L1855.97 67.1364L1881.05 21.7499H1878.64L1854.35 65.6674L1616.92 173.258L1616.62 173.41L1497.62 388.742L1259.92 496.282L1259.62 496.434L1140.61 711.766L902.916 819.306L902.614 819.458L783.613 1034.79L545.914 1142.33L545.613 1142.48L426.612 1357.81L188.913 1465.35L188.611 1465.51L69.6107 1680.84L21.0452 1702.82V1705L70.8927 1682.46L70.9681 1682.26ZM160.218 1439.98L397.918 1332.44L398.219 1332.28L517.22 1116.95L754.919 1009.41L755.221 1009.26L874.221 793.928L1111.92 686.388L1112.22 686.237L1231.22 470.904L1468.92 363.364L1469.22 363.212L1588.22 147.88L1825.92 40.3401L1826.22 40.1881L1836.44 21.6992H1834.03L1824.64 38.7192L1586.94 146.259L1586.83 146.461L1467.83 361.794L1230.09 469.334L1229.79 469.486L1110.75 684.818L873.052 792.358L872.751 792.51L753.75 1007.84L516.051 1115.38L515.749 1115.53L396.749 1330.87L158.936 1438.41L158.635 1438.56L39.5966 1653.89L20.7812 1662.4V1664.58L41.1803 1655.36L160.218 1439.98ZM338.417 1278.64L338.719 1278.49L457.72 1063.16L695.419 955.618L695.72 955.466L814.721 740.133L1052.42 632.593L1052.72 632.441L1171.72 417.109L1409.61 309.569L1409.91 309.417L1528.91 94.0846L1688.75 21.8005H1683.96L1527.63 92.4637L1527.33 92.6156L1408.33 307.948L1170.63 415.488L1170.33 415.64L1051.25 630.972L813.552 738.512L813.25 738.664L694.25 953.997L456.551 1061.54L456.249 1061.69L337.249 1277.02L99.4362 1384.56L99.1345 1384.71L20.819 1526.39V1530.75L100.718 1386.18L338.417 1278.64ZM160.218 1763L279.219 1547.67L516.956 1440.13L517.258 1439.98L636.258 1224.64L873.957 1117.1L874.259 1116.95L993.297 901.62L1231 794.08L1231.3 793.928L1350.3 578.596L1588 471.056L1588.3 470.904L1707.3 255.571L1945 148.032L1945.3 147.88L2015.02 21.7499H2012.61L1943.91 146.461L1706.21 254.001L1705.9 254.153L1586.83 469.486L1349.13 577.025L1348.83 577.177L1229.83 792.51L992.128 900.049L991.827 900.201L872.788 1115.53L635.089 1223.07L634.787 1223.23L515.787 1438.56L278.05 1546.1L277.748 1546.25L158.635 1761.58L20.819 1823.94V1826.12L159.917 1763.2L160.218 1763ZM368.205 1305.54L368.507 1305.39L487.507 1090.05L725.207 982.515L725.508 982.363L844.509 767.031L1082.21 659.491L1082.51 659.339L1201.51 444.006L1439.21 336.467L1439.51 336.315L1558.51 120.982L1777.85 21.7499H1773.06L1557.42 119.412L1557.12 119.564L1438.12 334.896L1200.34 442.436L1200.04 442.588L1081.04 657.921L843.34 765.46L843.038 765.612L724.038 980.945L486.339 1088.48L486.037 1088.64L367.036 1303.97L129.337 1411.51L129.035 1411.66L20.9698 1607.19V1611.54L130.619 1413.13L368.205 1305.54ZM219.756 1170.8L338.757 955.466L576.456 847.926L576.758 847.774L695.758 632.441L933.457 524.902L933.759 524.75L1052.76 309.417L1290.46 201.878L1290.76 201.726L1390.23 21.7499H1387.82L1289.29 200.307L1051.59 307.847L1051.29 307.999L932.251 523.331L694.552 630.871L694.25 631.023L575.25 846.356L337.55 953.895L337.249 954.047L218.248 1169.38L20.8944 1258.63V1260.81L219.417 1170.95L219.756 1170.8ZM130.468 1736.1L249.469 1520.77L487.206 1413.23L487.507 1413.08L606.508 1197.75L844.207 1090.21L844.509 1090.05L963.509 874.722L1201.21 767.182L1201.51 767.031L1320.51 551.698L1558.21 444.158L1558.51 444.006L1677.7 228.674L1915.4 121.134L1915.7 120.982L1970.53 21.7499H1968.11L1914.08 119.513L1676.42 227.053L1676.12 227.205L1557.08 442.537L1319.38 550.077L1319.08 550.229L1200.08 765.562L962.378 873.101L962.076 873.253L843.076 1088.59L605.377 1196.13L604.962 1196.28L485.961 1411.61L248.224 1519.15L247.923 1519.3L128.922 1734.63L20.8567 1783.52V1785.69L130.204 1736.26L130.468 1736.1ZM70.9681 1036.21L189.969 820.876L427.668 713.337L427.969 713.185L546.97 497.852L784.669 390.313L784.971 390.161L903.971 174.828L1141.67 67.2883L1141.97 67.1364L1167.05 21.7499H1164.63L1140.35 65.6674L902.802 173.258L902.501 173.41L783.5 388.742L545.763 496.282L545.462 496.434L426.461 711.766L188.762 819.306L188.46 819.458L69.4598 1034.79L20.8944 1056.77V1058.95L70.7418 1036.41L70.9681 1036.21ZM130.468 444.006L249.506 228.674L487.243 121.134L487.545 120.982L542.37 21.7499H539.957L485.924 119.513L248.224 227.053L247.885 227.205L128.885 442.588L20.819 491.47V493.648L130.167 444.209L130.468 444.006ZM189.969 497.852L308.969 282.52L546.668 174.98L546.97 174.828L631.545 21.7499H629.132L545.424 173.359L307.725 280.899L307.423 281.051L188.385 496.383L20.819 572.213V574.391L189.667 498.004L189.969 497.852ZM219.756 524.75L338.757 309.417L576.456 201.878L576.758 201.726L676.226 21.7499H673.813L575.212 200.307L337.475 307.847L337.173 307.999L218.135 523.331L20.7812 612.585V614.763L219.379 524.902L219.756 524.75ZM160.218 470.904L279.219 255.571L516.956 148.032L517.258 147.88L586.976 21.7499H584.563L515.636 146.461L277.975 254.001L277.673 254.153L158.635 469.486L20.819 531.841V534.02L159.917 471.107L160.218 470.904ZM249.506 551.698L368.507 336.365L606.206 228.826L606.508 228.674L720.87 21.8005H718.457L604.962 227.205L367.225 334.744L366.923 334.896L247.885 550.229L20.7812 652.956V655.135L249.129 551.85L249.506 551.698ZM171.304 21.7499H166.515L69.6861 65.5661L69.3844 65.718L20.819 153.553V157.909L70.9681 67.1364L171.304 21.7499ZM349.842 21.7499H345.054L129.186 119.412L128.885 119.564L20.819 315.09V319.447L130.468 121.033L349.842 21.7499ZM260.554 21.7499H255.766L99.4362 92.4637L99.1345 92.6156L20.819 234.347V238.703L100.718 94.0846L260.554 21.7499ZM278.917 578.748L279.219 578.596L398.219 363.263L635.919 255.723L636.22 255.571L755.221 40.2388L796.056 21.7499H791.268L753.976 38.6178L753.675 38.7698L634.674 254.102L396.975 361.642L396.673 361.794L277.635 577.177L39.936 684.666L39.6343 684.818L20.819 718.858V723.214L41.218 686.287L278.917 578.748ZM100.718 417.109L219.756 201.726L457.456 94.1859L457.757 94.0339L497.726 21.7499H495.313L456.136 92.6156L218.474 200.155L218.173 200.307L99.1345 415.64L20.819 451.047V453.226L100.417 417.21L100.718 417.109ZM368.205 659.491L368.507 659.339L487.507 444.006L725.207 336.467L725.508 336.315L844.509 120.982L1063.85 21.7499H1059.06L843.227 119.361L842.925 119.513L723.925 334.846L486.225 442.385L485.924 442.537L366.923 657.921L129.224 765.46L128.922 765.612L20.8567 961.139V965.495L130.506 767.081L368.205 659.491ZM308.667 605.645L308.969 605.493L427.969 390.161L665.669 282.621L665.97 282.469L784.971 67.1364L885.307 21.7499H880.518L783.689 65.5661L783.387 65.718L664.387 281.051L426.725 388.59L426.424 388.742L307.385 604.075L69.6861 711.614L69.3844 711.766L20.819 799.652V804.008L70.9681 713.235L308.667 605.645ZM338.417 632.593L338.757 632.441L457.795 417.109L695.494 309.569L695.796 309.417L814.796 94.0846L974.633 21.8005H969.844L813.514 92.5143L813.213 92.6663L694.212 307.999L456.513 415.538L456.211 415.69L337.173 630.972L99.4362 738.512L99.1345 738.664L20.819 880.345V884.701L100.718 740.133L338.417 632.593ZM70.9681 390.161L189.969 174.828L427.668 67.2883L427.969 67.1364L453.044 21.7499H450.631L426.348 65.6674L188.724 173.258L188.423 173.41L69.3844 388.742L20.819 410.726V412.904L70.6664 390.363L70.9681 390.161ZM160.218 147.93L397.955 40.3908L398.257 40.2388L408.475 21.7499H406.062L396.673 38.7698L158.936 146.309L158.635 146.461L39.6343 361.794L20.819 370.304V372.482L41.218 363.263L160.218 147.93ZM249.506 1197.7L368.507 982.363L606.206 874.823L606.508 874.671L725.546 659.339L963.245 551.799L963.547 551.647L1082.55 336.315L1320.28 228.775L1320.59 228.623L1434.95 21.7499H1432.54L1319.04 227.205L1081.34 334.744L1081.04 334.896L962.039 550.229L724.302 657.769L724 657.921L605 873.253L367.3 980.793L366.999 980.945L247.885 1196.28L20.7812 1299V1301.18L249.129 1197.9L249.506 1197.7Z" fill="#13C4A1"/>
<path d="M1685.39 878.35L1685.09 878.502L1566.05 1093.83L1328.35 1201.37L1328.05 1201.53L1209.05 1416.86L971.347 1524.4L971.045 1524.55L852.045 1739.88L692.209 1812.17H696.997L853.289 1741.45L853.591 1741.3L972.629 1525.97L1210.33 1418.43L1210.63 1418.28L1329.67 1202.94L1567.37 1095.41L1567.67 1095.25L1686.67 879.921L1924.37 772.381L1924.67 772.229L2002.99 630.548V626.192L1923.09 770.76L1685.39 878.35ZM1655.64 851.402L1655.34 851.554L1536.34 1066.89L1298.64 1174.43L1298.33 1174.58L1179.33 1389.91L941.635 1497.45L941.333 1497.6L822.332 1712.93L602.996 1812.17H607.785L823.577 1714.56L823.878 1714.4L942.879 1499.07L1180.58 1391.53L1180.88 1391.38L1299.88 1176.05L1537.58 1068.51L1537.88 1068.36L1656.88 853.023L1894.58 745.483L1894.88 745.331L2002.95 549.805V545.448L1893.3 743.862L1655.64 851.402ZM1774.34 313.197L1655.34 528.53L1417.64 636.069L1417.33 636.221L1298.33 851.554L1060.63 959.094L1060.33 959.246L941.22 1174.58L703.483 1282.12L703.181 1282.27L584.181 1497.6L346.444 1605.14L346.142 1605.29L231.817 1812.17H234.23L347.763 1606.71L585.463 1499.17L585.764 1499.02L704.765 1283.69L942.464 1176.15L942.766 1176L1061.77 960.664L1299.5 853.124L1299.8 852.972L1418.88 637.64L1656.58 530.1L1656.88 529.948L1775.88 314.616L2002.99 211.888V209.761L1774.64 313.045L1774.34 313.197ZM1804.09 340.095L1685.09 555.427L1447.35 662.967L1447.05 663.119L1328.05 878.452L1090.31 985.991L1090.01 986.143L971.008 1201.48L733.271 1309.02L732.969 1309.17L613.968 1524.5L376.231 1632.04L375.93 1632.19L276.461 1812.17H278.874L377.551 1633.66L615.25 1526.12L615.552 1525.97L734.553 1310.64L972.29 1203.1L972.591 1202.94L1091.59 987.612L1329.29 880.073L1329.59 879.921L1448.63 664.588L1686.33 557.048L1686.63 556.896L1805.67 341.564L2002.99 252.31V250.132L1804.39 339.993L1804.09 340.095ZM1952.87 1120.73L1833.87 1336.06L1596.17 1443.6L1595.87 1443.76L1476.87 1659.09L1239.17 1766.63L1238.87 1766.78L1213.8 1812.17H1216.21L1240.49 1768.25L1478.19 1660.71L1478.49 1660.56L1597.49 1445.23L1835.19 1337.69L1835.5 1337.53L1954.5 1122.2L2003.06 1100.22V1098.04L1953.21 1120.58L1952.87 1120.73ZM1982.62 1147.68L1863.62 1363.01L1625.92 1470.55L1625.62 1470.7L1506.62 1686.04L1268.92 1793.58L1268.62 1793.73L1258.4 1812.17H1260.82L1270.21 1795.15L1507.9 1687.61L1508.21 1687.46L1627.21 1472.12L1864.94 1364.58L1865.25 1364.43L1984.25 1149.1L2003.06 1140.59V1138.41L1982.96 1147.48L1982.62 1147.68ZM1744.89 932.145L1744.59 932.297L1625.59 1147.63L1387.89 1255.17L1387.58 1255.32L1268.58 1470.65L1030.88 1578.19L1030.58 1578.35L911.583 1793.68L870.785 1812.12H875.573L912.865 1795.25L913.166 1795.1L1032.09 1579.81L1269.79 1472.28L1270.09 1472.12L1389.09 1256.79L1626.83 1149.25L1627.13 1149.1L1746.13 933.766L1983.83 826.227L1984.13 826.075L2002.95 792.035V787.679L1982.55 824.606L1744.89 932.145ZM1715.14 905.248L1714.84 905.4L1595.84 1120.73L1358.14 1228.27L1357.83 1228.42L1238.83 1443.76L1001.13 1551.3L1000.83 1551.45L881.833 1766.78L781.534 1812.17H786.323L883.115 1768.4L883.416 1768.25L1002.42 1552.92L1240.12 1445.38L1240.42 1445.23L1359.42 1229.89L1597.12 1122.35L1597.42 1122.2L1716.42 906.869L1954.12 799.329L1954.42 799.177L2002.99 711.291V706.935L1952.84 797.708L1715.14 905.248ZM1923.12 447.786L1804.12 663.119L1566.42 770.659L1566.12 770.811L1447.12 986.143L1209.42 1093.68L1209.12 1093.83L1090.12 1309.17L852.271 1416.71L851.969 1416.86L732.969 1632.19L495.27 1739.73L494.968 1739.88L455 1812.17H457.413L496.552 1741.3L734.251 1633.76L734.553 1633.61L853.553 1418.28L1091.25 1310.74L1091.55 1310.59L1210.55 1095.25L1448.25 987.713L1448.56 987.562L1567.56 772.229L1805.26 664.689L1805.56 664.537L1924.56 449.205L2002.87 413.797V411.619L1923.28 447.634L1923.12 447.786ZM1982.62 501.632L1863.62 716.965L1625.92 824.504L1625.62 824.656L1506.62 1039.99L1268.92 1147.53L1268.62 1147.68L1149.58 1363.01L911.884 1470.55L911.583 1470.7L792.582 1686.04L554.883 1793.58L554.581 1793.73L544.363 1812.17H546.776L556.165 1795.15L793.864 1687.61L794.166 1687.46L913.166 1472.12L1150.87 1364.58L1151.17 1364.43L1270.21 1149.1L1507.9 1041.56L1508.21 1041.41L1627.21 826.075L1864.94 718.535L1865.25 718.383L1984.25 503.051L2003.06 494.541V492.362L1982.96 501.43L1982.62 501.632ZM1952.87 474.684L1833.87 690.017L1596.17 797.556L1595.87 797.708L1476.87 1013.04L1239.17 1120.58L1238.87 1120.73L1119.87 1336.06L882.172 1443.6L881.87 1443.76L762.87 1659.09L525.171 1766.63L524.869 1766.78L499.794 1812.17H502.208L526.49 1768.25L764.19 1660.71L764.491 1660.56L883.492 1445.23L1121.19 1337.69L1121.49 1337.53L1240.49 1122.2L1478.19 1014.66L1478.49 1014.51L1597.49 799.177L1835.19 691.638L1835.5 691.485L1954.5 476.153L2003.06 454.169V451.991L1953.21 474.532L1952.87 474.684ZM1833.84 367.043L1714.8 582.376L1477.1 689.915L1476.8 690.067L1357.8 905.4L1120.1 1012.94L1119.8 1013.09L1000.8 1228.42L763.096 1335.96L762.794 1336.12L643.794 1551.45L406.095 1658.99L405.793 1659.14L321.218 1812.17H323.631L407.414 1660.56L645.114 1553.02L645.415 1552.87L764.416 1337.53L1002.12 1229.99L1002.42 1229.84L1121.42 1014.51L1359.12 906.97L1359.42 906.818L1478.42 691.485L1716.12 583.946L1716.42 583.794L1835.42 368.461L2002.99 292.682V290.504L1834.14 366.891L1833.84 367.043ZM1744.89 286.148L1744.59 286.3L1625.59 501.632L1387.89 609.172L1387.58 609.324L1268.58 824.656L1030.88 932.196L1030.58 932.348L911.583 1147.68L673.883 1255.22L673.582 1255.37L554.581 1470.7L316.882 1578.24L316.58 1578.4L197.58 1793.73L156.782 1812.17H161.571L198.862 1795.3L199.164 1795.15L317.976 1579.81L555.675 1472.28L555.976 1472.12L674.977 1256.79L912.752 1149.25L913.053 1149.1L1032.05 933.766L1269.75 826.227L1270.05 826.075L1389.06 610.742L1626.75 503.202L1627.06 503.051L1746.06 287.718L1983.76 180.178L1984.06 180.026L2002.87 145.986V141.63L1982.47 178.557L1744.89 286.148ZM1863.59 393.941L1744.59 609.273L1506.85 716.813L1506.55 716.965L1387.55 932.297L1149.85 1039.84L1149.55 1039.99L1030.55 1255.32L792.846 1362.86L792.545 1363.01L673.544 1578.35L435.845 1685.89L435.543 1686.04L365.825 1812.17H368.238L437.127 1687.51L674.826 1579.97L675.128 1579.81L794.128 1364.48L1031.83 1256.94L1032.13 1256.79L1151.13 1041.46L1388.83 933.918L1389.13 933.766L1508.13 718.434L1745.87 610.894L1746.17 610.742L1865.17 395.41L2002.99 333.054V330.876L1863.93 393.789L1863.59 393.941ZM1923.12 1093.83L1804.12 1309.17L1566.42 1416.71L1566.12 1416.86L1447.12 1632.19L1209.39 1739.73L1209.08 1739.88L1169.12 1812.17H1171.53L1210.67 1741.3L1448.37 1633.76L1448.67 1633.61L1567.67 1418.28L1805.37 1310.74L1805.67 1310.59L1924.67 1095.25L2002.99 1059.85V1057.67L1923.39 1093.68L1923.12 1093.83ZM1952.87 151.66L1715.18 259.199L1714.87 259.351L1595.87 474.684L1358.17 582.224L1357.87 582.376L1238.76 797.708L1001.06 905.248L1000.76 905.4L881.757 1120.73L644.058 1228.27L643.756 1228.42L524.756 1443.76L287.057 1551.3L286.755 1551.45L167.754 1766.78L67.4562 1812.17H72.2449L169.036 1768.4L169.338 1768.25L288.339 1552.92L526.038 1445.38L526.339 1445.23L645.34 1229.89L883.039 1122.35L883.341 1122.2L1002.34 906.869L1240.04 799.329L1240.34 799.177L1359.34 583.845L1597.04 476.305L1597.34 476.153L1716.34 260.82L1954.04 153.281L1954.35 153.129L2003.02 65.2431V60.8868L1952.87 151.66ZM1893.34 420.889L1774.34 636.221L1536.6 743.761L1536.3 743.913L1417.3 959.246L1179.56 1066.79L1179.26 1066.94L1060.26 1282.27L822.559 1389.81L822.257 1389.96L703.257 1605.29L465.557 1712.83L465.256 1712.99L410.431 1812.22H412.844L466.877 1714.45L704.576 1606.91L704.878 1606.76L823.916 1391.43L1061.62 1283.89L1061.92 1283.74L1180.96 1068.41L1418.65 960.867L1418.96 960.715L1537.96 745.382L1775.69 637.842L1776 637.69L1895 422.358L2003.06 373.476V371.298L1893.71 420.737L1893.34 420.889ZM1833.84 1659.09L1749.26 1812.12H1751.67L1835.46 1660.51L2003.02 1584.73V1582.55L1834.18 1658.94L1833.84 1659.09ZM1863.59 1686.04L1793.87 1812.17H1796.28L1865.21 1687.51L2003.02 1625.15V1622.97L1863.93 1685.89L1863.59 1686.04ZM1774.34 1605.24L1660.01 1812.12H1662.42L1775.96 1606.66L2003.06 1503.93V1501.76L1774.68 1605.14L1774.34 1605.24ZM1893.34 1712.93L1838.51 1812.17H1840.93L1894.96 1714.4L2003.02 1665.52V1663.34L1893.68 1712.78L1893.34 1712.93ZM1744.89 1578.19L1744.59 1578.35L1625.59 1793.68L1584.79 1812.12H1589.58L1626.87 1795.25L1627.17 1795.1L1746.17 1579.81L1983.87 1472.28L1984.17 1472.12L2002.99 1438.08V1433.73L1982.59 1470.65L1744.89 1578.19ZM1982.62 1793.68L1972.41 1812.12H1974.82L1984.21 1795.1L2003.02 1786.59V1784.41L1982.93 1793.48L1982.62 1793.68ZM1952.87 1766.78L1927.8 1812.17H1930.21L1954.5 1768.25L2003.06 1746.27V1744.09L1953.21 1766.63L1952.87 1766.78ZM1893.34 1066.89L1774.34 1282.22L1536.6 1389.76L1536.3 1389.91L1417.3 1605.24L1179.56 1712.78L1179.26 1712.93L1124.43 1812.17H1126.85L1180.88 1714.4L1418.58 1606.86L1418.88 1606.71L1537.88 1391.38L1775.62 1283.84L1775.92 1283.69L1894.92 1068.36L2002.99 1019.47V1017.3L1893.64 1066.73L1893.34 1066.89ZM1923.12 1739.88L1883.16 1812.17H1885.57L1924.71 1741.3L2003.02 1705.89V1703.72L1923.43 1739.73L1923.12 1739.88ZM1715.14 1551.3L1714.84 1551.45L1595.84 1766.78L1495.54 1812.17H1500.33L1597.12 1768.4L1597.42 1768.25L1716.42 1552.92L1954.12 1445.38L1954.42 1445.23L2002.99 1357.34V1352.98L1952.84 1443.76L1715.14 1551.3ZM1804.09 986.143L1685.09 1201.48L1447.39 1309.02L1447.08 1309.17L1328.08 1524.5L1090.35 1632.04L1090.05 1632.19L990.577 1812.17H992.915L1091.59 1633.66L1329.29 1526.12L1329.59 1525.97L1448.59 1310.64L1686.29 1203.1L1686.59 1202.94L1805.59 987.612L2002.91 898.359V896.181L1804.31 986.042L1804.09 986.143ZM1863.59 1039.99L1744.59 1255.32L1506.85 1362.86L1506.55 1363.01L1387.55 1578.35L1149.85 1685.89L1149.55 1686.04L1079.83 1812.17H1082.24L1151.13 1687.51L1388.83 1579.92L1389.13 1579.76L1508.13 1364.43L1745.87 1256.89L1746.17 1256.74L1865.17 1041.41L2002.99 979.051V976.873L1863.93 1039.84L1863.59 1039.99ZM1833.84 1013.09L1714.84 1228.42L1477.14 1335.96L1476.83 1336.12L1357.83 1551.45L1120.14 1658.99L1119.83 1659.14L1035.26 1812.17H1037.67L1121.45 1660.56L1359.15 1553.02L1359.46 1552.87L1478.46 1337.53L1716.16 1229.99L1716.46 1229.84L1835.46 1014.51L2003.02 938.731V936.552L1834.18 1012.94L1833.84 1013.09ZM1774.34 959.246L1655.34 1174.58L1417.64 1282.12L1417.33 1282.27L1298.33 1497.6L1060.56 1605.14L1060.26 1605.29L945.933 1812.17H948.346L1061.88 1606.71L1299.62 1499.17L1299.92 1499.02L1418.92 1283.69L1656.62 1176.15L1656.92 1176L1775.92 960.664L2003.02 857.936V855.758L1774.68 959.043L1774.34 959.246ZM1685.39 1524.35L1685.09 1524.5L1566.05 1739.88L1406.25 1812.17H1411.04L1567.33 1741.45L1567.63 1741.3L1686.63 1525.97L1924.33 1418.43L1924.63 1418.28L2002.95 1276.6V1272.24L1923.05 1416.81L1685.39 1524.35ZM1655.64 1497.45L1655.34 1497.6L1536.34 1712.93L1317 1812.17H1321.79L1537.58 1714.56L1537.88 1714.4L1656.88 1499.07L1894.58 1391.53L1894.88 1391.38L2002.95 1195.85V1191.5L1893.3 1389.91L1655.64 1497.45ZM1804.09 1632.19L1704.62 1812.17H1707.03L1805.71 1633.66L2003.02 1544.36V1542.18L1804.43 1632.04L1804.09 1632.19ZM139.437 772.229L377.174 664.74L377.476 664.588L496.476 449.255L734.176 341.716L734.477 341.564L853.515 126.231L1091.21 18.6915L1091.52 18.5396L1101.73 0.0506654H1099.32L1089.93 17.0706L852.271 124.61L851.969 124.762L732.969 340.095L495.27 447.634L494.968 447.786L375.892 663.119L138.193 770.659L137.891 770.811L18.8531 986.143L0.037707 994.653V996.831L20.4367 987.612L139.437 772.229ZM79.9369 1041.41L198.937 826.075L436.637 718.535L436.938 718.383L555.939 503.051L793.638 395.511L793.94 395.359L912.94 180.026L1150.64 72.4867L1150.94 72.3347L1190.91 0.0506654H1188.5L1149.32 70.9164L911.771 178.456L911.47 178.608L792.469 393.941L554.77 501.48L554.468 501.632L435.468 716.965L197.693 824.504L197.391 824.656L78.3533 1039.99L0.037707 1075.4V1077.57L79.6353 1041.56L79.9369 1041.41ZM287.886 1229.99L288.188 1229.84L407.188 1014.51L644.887 906.97L645.189 906.818L764.19 691.485L1001.89 583.946L1002.19 583.794L1121.19 368.461L1358.89 260.922L1359.19 260.77L1478.19 45.4372L1578.53 0.0506654H1573.74L1476.91 43.8669L1476.61 44.0188L1357.61 259.351L1119.91 366.891L1119.61 367.043L1000.61 582.376L762.908 689.915L762.606 690.067L643.605 905.4L405.906 1012.94L405.605 1013.09L286.604 1228.42L48.9048 1335.96L48.6032 1336.12L0.037707 1424V1428.36L50.1868 1337.58L287.886 1229.99ZM258.136 1203.1L258.438 1202.94L377.438 987.612L615.137 880.073L615.439 879.921L734.439 664.588L972.176 557.048L972.478 556.896L1091.48 341.564L1329.18 234.024L1329.48 233.872L1448.48 18.5396L1489.32 0.0506654H1484.53L1447.24 16.9186L1446.93 17.0706L1327.9 232.403L1090.2 339.943L1089.89 340.095L970.894 555.427L733.271 662.967L732.969 663.119L613.968 878.452L376.231 985.991L375.93 986.143L256.929 1201.48L19.2301 1309.02L18.9285 1309.17L0.113117 1343.21V1347.56L20.5121 1310.64L258.136 1203.1ZM61.2724 0.0506654H56.446L19.1547 16.9186L18.8531 17.0706L0.037707 51.1105V55.4668L20.4367 18.5396L61.2724 0.0506654ZM169.187 1122.2L288.188 906.869L525.887 799.329L526.189 799.177L645.189 583.845L882.888 476.305L883.19 476.153L1002.23 260.82L1239.93 153.281L1240.23 153.129L1324.8 0.0506654H1322.39L1238.76 151.66L1001.06 259.199L1000.76 259.351L881.72 474.684L644.02 582.224L643.719 582.376L524.718 797.708L287.019 905.248L286.717 905.4L167.717 1120.73L0.150824 1196.51V1198.69L168.999 1122.3L169.187 1122.2ZM139.437 1095.25L258.438 879.921L496.175 772.381L496.476 772.229L615.477 556.896L853.176 449.357L853.478 449.205L972.478 233.872L1210.18 126.333L1210.48 126.181L1280.2 0.0506654H1277.78L1208.86 124.762L971.158 232.302L970.857 232.454L851.856 447.786L614.157 555.326L613.855 555.478L494.855 770.811L257.118 878.35L256.816 878.502L137.816 1093.83L0 1156.19V1158.37L139.098 1095.46L139.437 1095.25ZM109.687 1068.36L228.688 853.023L466.425 745.483L466.726 745.331L585.727 529.999L823.426 422.459L823.728 422.307L942.728 206.975L1180.43 99.4349L1180.73 99.283L1235.55 0.0506654H1233.14L1179.11 97.814L941.521 205.354L941.22 205.506L822.219 420.838L584.52 528.378L584.218 528.53L465.218 743.862L227.443 851.402L227.142 851.554L108.141 1066.89L0.0754103 1115.77V1117.95L109.423 1068.51L109.687 1068.36ZM79.9369 1687.46L198.975 1472.12L436.674 1364.58L436.976 1364.43L555.976 1149.1L793.676 1041.56L793.977 1041.41L912.978 826.075L1150.68 718.535L1150.98 718.383L1269.98 503.051L1507.68 395.511L1507.98 395.359L1626.98 180.026L1864.72 72.4867L1865.02 72.3347L1904.99 0.0506654H1902.57L1863.44 70.9164L1625.89 178.456L1625.59 178.608L1506.59 393.941L1268.89 501.48L1268.58 501.632L1149.58 716.965L911.884 824.504L911.583 824.656L792.582 1039.99L554.883 1147.53L554.581 1147.68L435.581 1363.01L197.693 1470.55L197.391 1470.7L78.3533 1686.04L0.037707 1721.44V1723.62L79.6353 1687.61L79.9369 1687.46ZM50.1868 1660.56L169.187 1445.23L406.887 1337.69L407.188 1337.53L526.189 1122.2L763.888 1014.66L764.19 1014.51L883.19 799.177L1120.89 691.638L1121.19 691.485L1240.19 476.153L1477.89 368.613L1478.19 368.461L1597.19 153.129L1834.89 45.5891L1835.19 45.4372L1860.27 0.0506654H1857.86L1833.57 43.9682L1596.14 151.558L1595.84 151.71L1476.83 367.043L1239.14 474.583L1238.83 474.735L1119.83 690.067L882.134 797.607L881.833 797.759L762.832 1013.09L525.133 1120.63L524.831 1120.78L405.831 1336.12L168.132 1443.66L167.83 1443.81L48.8294 1659.14L0.263942 1681.12V1683.3L50.1114 1660.76L50.1868 1660.56ZM139.437 1418.28L377.136 1310.74L377.438 1310.59L496.439 1095.25L734.138 987.713L734.439 987.562L853.44 772.229L1091.14 664.689L1091.44 664.537L1210.44 449.205L1448.14 341.665L1448.44 341.513L1567.44 126.181L1805.14 18.6409L1805.44 18.4889L1815.66 0H1813.25L1803.86 17.0199L1566.16 124.56L1566.05 124.762L1447.05 340.095L1209.31 447.634L1209.01 447.786L1089.97 663.119L852.271 770.659L851.969 770.811L732.969 986.143L495.27 1093.68L494.968 1093.83L375.968 1309.17L138.155 1416.71L137.854 1416.86L18.8153 1632.19L0 1640.7V1642.88L20.399 1633.66L139.437 1418.28ZM317.636 1256.94L317.938 1256.79L436.938 1041.46L674.638 933.918L674.939 933.766L793.94 718.434L1031.64 610.894L1031.94 610.742L1150.94 395.41L1388.83 287.87L1389.13 287.718L1508.13 72.3854L1667.97 0.101311H1663.18L1506.85 70.7644L1506.55 70.9164L1387.55 286.249L1149.85 393.789L1149.55 393.941L1030.47 609.273L792.771 716.813L792.469 716.965L673.469 932.297L435.769 1039.84L435.468 1039.99L316.467 1255.32L78.6549 1362.86L78.3533 1363.01L0.037707 1504.69V1509.05L79.9369 1364.48L317.636 1256.94ZM139.437 1741.3L258.438 1525.97L496.175 1418.43L496.476 1418.28L615.477 1202.94L853.176 1095.41L853.478 1095.25L972.516 879.921L1210.22 772.381L1210.52 772.229L1329.52 556.896L1567.22 449.357L1567.52 449.205L1686.52 233.872L1924.22 126.333L1924.52 126.181L1994.24 0.0506654H1991.82L1923.12 124.762L1685.43 232.302L1685.12 232.454L1566.05 447.786L1328.35 555.326L1328.05 555.478L1209.05 770.811L971.347 878.35L971.045 878.502L852.007 1093.83L614.308 1201.37L614.006 1201.53L495.006 1416.86L257.269 1524.4L256.967 1524.55L137.854 1739.88L0.037707 1802.24V1804.42L139.136 1741.5L139.437 1741.3ZM347.424 1283.84L347.726 1283.69L466.726 1068.36L704.425 960.816L704.727 960.664L823.728 745.331L1061.43 637.792L1061.73 637.64L1180.73 422.307L1418.43 314.767L1418.73 314.616L1537.73 99.283L1757.07 0.0506654H1752.28L1536.64 97.7127L1536.34 97.8646L1417.33 313.197L1179.56 420.737L1179.26 420.889L1060.26 636.221L822.559 743.761L822.257 743.913L703.257 959.246L465.557 1066.79L465.256 1066.94L346.255 1282.27L108.556 1389.81L108.254 1389.96L0.188531 1585.49V1589.84L109.838 1391.43L347.424 1283.84ZM198.975 1149.1L317.976 933.766L555.675 826.227L555.976 826.075L674.977 610.742L912.676 503.202L912.978 503.051L1031.98 287.718L1269.68 180.178L1269.98 180.026L1369.45 0.0506654H1367.03L1268.51 178.608L1030.81 286.148L1030.51 286.3L911.47 501.632L673.77 609.172L673.469 609.324L554.468 824.656L316.769 932.196L316.467 932.348L197.467 1147.68L0.113117 1236.93V1239.11L198.636 1149.25L198.975 1149.1ZM109.687 1714.4L228.688 1499.07L466.425 1391.53L466.726 1391.38L585.727 1176.05L823.426 1068.51L823.728 1068.36L942.728 853.023L1180.43 745.483L1180.73 745.331L1299.73 529.999L1537.43 422.459L1537.73 422.307L1656.92 206.975L1894.62 99.4349L1894.92 99.283L1949.74 0.0506654H1947.33L1893.3 97.814L1655.64 205.354L1655.34 205.506L1536.3 420.838L1298.6 528.378L1298.3 528.53L1179.3 743.862L941.597 851.402L941.295 851.554L822.295 1066.89L584.595 1174.43L584.181 1174.58L465.18 1389.91L227.443 1497.45L227.142 1497.6L108.141 1712.93L0.0754103 1761.82V1763.99L109.423 1714.56L109.687 1714.4ZM50.1868 1014.51L169.187 799.177L406.887 691.638L407.188 691.485L526.189 476.153L763.888 368.613L764.19 368.461L883.19 153.129L1120.89 45.5891L1121.19 45.4372L1146.27 0.0506654H1143.85L1119.57 43.9682L882.021 151.558L881.72 151.71L762.719 367.043L524.982 474.583L524.68 474.735L405.68 690.067L167.981 797.607L167.679 797.759L48.6786 1013.09L0.113117 1035.08V1037.25L49.9606 1014.71L50.1868 1014.51ZM109.687 422.307L228.725 206.975L466.462 99.4349L466.764 99.283L521.589 0.0506654H519.175L465.142 97.814L227.443 205.354L227.104 205.506L108.103 420.889L0.037707 469.77V471.949L109.385 422.51L109.687 422.307ZM169.187 476.153L288.188 260.82L525.887 153.281L526.189 153.129L610.763 0.0506654H608.35L524.643 151.66L286.943 259.199L286.642 259.351L167.604 474.684L0.037707 550.514V552.692L168.886 476.305L169.187 476.153ZM198.975 503.051L317.976 287.718L555.675 180.178L555.976 180.026L655.445 0.0506654H653.032L554.431 178.608L316.694 286.148L316.392 286.3L197.354 501.632L0 590.886V593.064L198.598 503.202L198.975 503.051ZM139.437 449.205L258.438 233.872L496.175 126.333L496.476 126.181L566.195 0.0506654H563.782L494.855 124.762L257.193 232.302L256.892 232.454L137.854 447.786L0.037707 510.142V512.32L139.136 449.407L139.437 449.205ZM228.725 529.999L347.726 314.666L585.425 207.127L585.727 206.975L700.089 0.101311H697.676L584.181 205.506L346.444 313.045L346.142 313.197L227.104 528.53L0 631.257V633.435L228.348 530.151L228.725 529.999ZM150.523 0.0506654H145.734L48.9048 43.8669L48.6032 44.0188L0.037707 131.854V136.21L50.1868 45.4372L150.523 0.0506654ZM329.061 0.0506654H324.272L108.405 97.7127L108.103 97.8646L0.037707 293.391V297.748L109.687 99.3336L329.061 0.0506654ZM239.773 0.0506654H234.984L78.6549 70.7644L78.3533 70.9164L0.037707 212.648V217.004L79.9369 72.3854L239.773 0.0506654ZM258.136 557.048L258.438 556.896L377.438 341.564L615.137 234.024L615.439 233.872L734.439 18.5396L775.275 0.0506654H770.487L733.195 16.9186L732.894 17.0706L613.893 232.403L376.194 339.943L375.892 340.095L256.854 555.478L19.1547 662.967L18.8531 663.119L0.037707 697.159V701.515L20.4367 664.588L258.136 557.048ZM79.9369 395.41L198.975 180.026L436.674 72.4867L436.976 72.3347L476.945 0.0506654H474.531L435.355 70.9164L197.693 178.456L197.391 178.608L78.3533 393.941L0.037707 429.348V431.526L79.6353 395.511L79.9369 395.41ZM347.424 637.792L347.726 637.64L466.726 422.307L704.425 314.767L704.727 314.616L823.728 99.283L1043.06 0.0506654H1038.28L822.446 97.662L822.144 97.814L703.143 313.147L465.444 420.686L465.142 420.838L346.142 636.221L108.443 743.761L108.141 743.913L0.0754103 939.44V943.796L109.725 745.382L347.424 637.792ZM287.886 583.946L288.188 583.794L407.188 368.461L644.887 260.922L645.189 260.77L764.19 45.4372L864.526 0.0506654H859.737L762.908 43.8669L762.606 44.0188L643.605 259.351L405.944 366.891L405.642 367.043L286.604 582.376L48.9048 689.915L48.6032 690.067L0.037707 777.953V782.309L50.1868 691.536L287.886 583.946ZM317.636 610.894L317.976 610.742L437.014 395.41L674.713 287.87L675.015 287.718L794.015 72.3854L953.851 0.101311H949.063L792.733 70.8151L792.431 70.9671L673.431 286.3L435.732 393.839L435.43 393.991L316.392 609.273L78.6549 716.813L78.3533 716.965L0.037707 858.646V863.002L79.9369 718.434L317.636 610.894ZM50.1868 368.461L169.187 153.129L406.887 45.5891L407.188 45.4372L432.263 0.0506654H429.85L405.567 43.9682L167.943 151.558L167.641 151.71L48.6032 367.043L0.037707 389.027V391.205L49.8852 368.664L50.1868 368.461ZM139.437 126.231L377.174 18.6915L377.476 18.5396L387.694 0.0506654H385.281L375.892 17.0706L138.155 124.61L137.854 124.762L18.8531 340.095L0.037707 348.605V350.783L20.4367 341.564L139.437 126.231ZM228.725 1176L347.726 960.664L585.425 853.124L585.727 852.972L704.765 637.64L942.464 530.1L942.766 529.948L1061.77 314.616L1299.5 207.076L1299.8 206.924L1414.17 0.0506654H1411.75L1298.26 205.506L1060.56 313.045L1060.26 313.197L941.257 528.53L703.52 636.069L703.219 636.221L584.218 851.554L346.519 959.094L346.217 959.246L227.104 1174.58L0 1277.31V1279.48L228.348 1176.2L228.725 1176Z" fill="#13C4A1"/>
<path d="M1698.17 893.35L1697.87 893.502L1578.83 1108.83L1341.13 1216.37L1340.83 1216.53L1221.83 1431.86L984.128 1539.4L983.827 1539.55L864.826 1754.88L704.99 1827.17H709.779L866.07 1756.45L866.372 1756.3L985.41 1540.97L1223.11 1433.43L1223.41 1433.28L1342.45 1217.94L1580.15 1110.41L1580.45 1110.25L1699.45 894.921L1937.15 787.381L1937.45 787.229L2015.77 645.548V641.192L1935.87 785.76L1698.17 893.35ZM1668.42 866.402L1668.12 866.554L1549.12 1081.89L1311.42 1189.43L1311.12 1189.58L1192.12 1404.91L954.416 1512.45L954.114 1512.6L835.114 1727.93L615.777 1827.17H620.566L836.358 1729.56L836.66 1729.4L955.66 1514.07L1193.36 1406.53L1193.66 1406.38L1312.66 1191.05L1550.36 1083.51L1550.66 1083.36L1669.66 868.023L1907.36 760.483L1907.66 760.331L2015.73 564.805V560.448L1906.08 758.862L1668.42 866.402ZM1787.12 328.197L1668.12 543.53L1430.42 651.069L1430.12 651.221L1311.12 866.554L1073.42 974.094L1073.11 974.246L954.001 1189.58L716.264 1297.12L715.962 1297.27L596.962 1512.6L359.225 1620.14L358.923 1620.29L244.598 1827.17H247.012L360.545 1621.71L598.244 1514.17L598.546 1514.02L717.546 1298.69L955.245 1191.15L955.547 1191L1074.55 975.664L1312.28 868.124L1312.59 867.972L1431.66 652.64L1669.36 545.1L1669.66 544.948L1788.66 329.616L2015.77 226.888V224.761L1787.42 328.045L1787.12 328.197ZM1816.87 355.095L1697.87 570.427L1460.13 677.967L1459.83 678.119L1340.83 893.452L1103.09 1000.99L1102.79 1001.14L983.789 1216.48L746.052 1324.02L745.75 1324.17L626.75 1539.5L389.013 1647.04L388.711 1647.19L289.242 1827.17H291.656L390.332 1648.66L628.032 1541.12L628.333 1540.97L747.334 1325.64L985.071 1218.1L985.372 1217.94L1104.37 1002.61L1342.07 895.073L1342.37 894.921L1461.41 679.588L1699.11 572.048L1699.41 571.896L1818.45 356.564L2015.77 267.31V265.132L1817.17 354.993L1816.87 355.095ZM1965.66 1135.73L1846.66 1351.06L1608.96 1458.6L1608.65 1458.76L1489.65 1674.09L1251.95 1781.63L1251.65 1781.78L1226.58 1827.17H1228.99L1253.27 1783.25L1490.97 1675.71L1491.28 1675.56L1610.28 1460.23L1847.97 1352.69L1848.28 1352.53L1967.28 1137.2L2015.84 1115.22V1113.04L1966 1135.58L1965.66 1135.73ZM1995.41 1162.68L1876.41 1378.01L1638.71 1485.55L1638.4 1485.7L1519.4 1701.04L1281.7 1808.58L1281.4 1808.73L1271.18 1827.17H1273.6L1282.99 1810.15L1520.69 1702.61L1520.99 1702.46L1639.99 1487.12L1877.73 1379.58L1878.03 1379.43L1997.03 1164.1L2015.84 1155.59V1153.41L1995.75 1162.48L1995.41 1162.68ZM1757.67 947.145L1757.37 947.297L1638.37 1162.63L1400.67 1270.17L1400.37 1270.32L1281.37 1485.65L1043.67 1593.19L1043.36 1593.35L924.364 1808.68L883.566 1827.12H888.355L925.646 1810.25L925.948 1810.1L1044.87 1594.81L1282.57 1487.28L1282.87 1487.12L1401.87 1271.79L1639.61 1164.25L1639.91 1164.1L1758.91 948.766L1996.61 841.227L1996.91 841.075L2015.73 807.035V802.679L1995.33 839.606L1757.67 947.145ZM1727.92 920.248L1727.62 920.4L1608.62 1135.73L1370.92 1243.27L1370.62 1243.42L1251.62 1458.76L1013.92 1566.3L1013.61 1566.45L894.614 1781.78L794.316 1827.17H799.104L895.896 1783.4L896.198 1783.25L1015.2 1567.92L1252.9 1460.38L1253.2 1460.23L1372.2 1244.89L1609.9 1137.35L1610.2 1137.2L1729.2 921.869L1966.9 814.329L1967.2 814.177L2015.77 726.291V721.935L1965.62 812.708L1727.92 920.248ZM1935.91 462.786L1816.91 678.119L1579.21 785.659L1578.9 785.811L1459.9 1001.14L1222.2 1108.68L1221.9 1108.83L1102.9 1324.17L865.052 1431.71L864.751 1431.86L745.75 1647.19L508.051 1754.73L507.749 1754.88L467.781 1827.17H470.194L509.333 1756.3L747.032 1648.76L747.334 1648.61L866.334 1433.28L1104.03 1325.74L1104.34 1325.59L1223.34 1110.25L1461.03 1002.71L1461.34 1002.56L1580.34 787.229L1818.04 679.689L1818.34 679.537L1937.34 464.205L2015.65 428.797V426.619L1936.06 462.634L1935.91 462.786ZM1995.41 516.632L1876.41 731.965L1638.71 839.504L1638.4 839.656L1519.4 1054.99L1281.7 1162.53L1281.4 1162.68L1162.36 1378.01L924.666 1485.55L924.364 1485.7L805.364 1701.04L567.664 1808.58L567.363 1808.73L557.144 1827.17H559.557L568.946 1810.15L806.646 1702.61L806.947 1702.46L925.948 1487.12L1163.65 1379.58L1163.95 1379.43L1282.99 1164.1L1520.69 1056.56L1520.99 1056.41L1639.99 841.075L1877.73 733.535L1878.03 733.383L1997.03 518.051L2015.84 509.541V507.362L1995.75 516.43L1995.41 516.632ZM1965.66 489.684L1846.66 705.017L1608.96 812.556L1608.65 812.708L1489.65 1028.04L1251.95 1135.58L1251.65 1135.73L1132.65 1351.06L894.953 1458.6L894.652 1458.76L775.651 1674.09L537.952 1781.63L537.65 1781.78L512.576 1827.17H514.989L539.272 1783.25L776.971 1675.71L777.272 1675.56L896.273 1460.23L1133.97 1352.69L1134.27 1352.53L1253.27 1137.2L1490.97 1029.66L1491.28 1029.51L1610.28 814.177L1847.97 706.638L1848.28 706.485L1967.28 491.153L2015.84 469.169V466.991L1966 489.532L1965.66 489.684ZM1846.62 382.043L1727.58 597.376L1489.88 704.915L1489.58 705.067L1370.58 920.4L1132.88 1027.94L1132.58 1028.09L1013.58 1243.42L775.877 1350.96L775.576 1351.12L656.575 1566.45L418.876 1673.99L418.574 1674.14L334 1827.17H336.413L420.196 1675.56L657.895 1568.02L658.197 1567.87L777.197 1352.53L1014.9 1244.99L1015.2 1244.84L1134.2 1029.51L1371.9 921.97L1372.2 921.818L1491.2 706.485L1728.9 598.946L1729.2 598.794L1848.2 383.461L2015.77 307.682V305.504L1846.92 381.891L1846.62 382.043ZM1757.67 301.148L1757.37 301.3L1638.37 516.632L1400.67 624.172L1400.37 624.324L1281.37 839.656L1043.67 947.196L1043.36 947.348L924.364 1162.68L686.665 1270.22L686.363 1270.37L567.363 1485.7L329.663 1593.24L329.362 1593.4L210.361 1808.73L169.563 1827.17H174.352L211.643 1810.3L211.945 1810.15L330.757 1594.81L568.456 1487.28L568.758 1487.12L687.758 1271.79L925.533 1164.25L925.835 1164.1L1044.83 948.766L1282.53 841.227L1282.84 841.075L1401.84 625.742L1639.54 518.202L1639.84 518.051L1758.84 302.718L1996.54 195.178L1996.84 195.026L2015.65 160.986V156.63L1995.26 193.557L1757.67 301.148ZM1876.37 408.941L1757.37 624.273L1519.63 731.813L1519.33 731.965L1400.33 947.297L1162.63 1054.84L1162.33 1054.99L1043.33 1270.32L805.628 1377.86L805.326 1378.01L686.325 1593.35L448.626 1700.89L448.324 1701.04L378.606 1827.17H381.019L449.908 1702.51L687.607 1594.97L687.909 1594.81L806.909 1379.48L1044.61 1271.94L1044.91 1271.79L1163.91 1056.46L1401.61 948.918L1401.91 948.766L1520.91 733.434L1758.65 625.894L1758.95 625.742L1877.95 410.41L2015.77 348.054V345.876L1876.71 408.789L1876.37 408.941ZM1935.91 1108.83L1816.91 1324.17L1579.21 1431.71L1578.9 1431.86L1459.9 1647.19L1222.17 1754.73L1221.87 1754.88L1181.9 1827.17H1184.31L1223.45 1756.3L1461.15 1648.76L1461.45 1648.61L1580.45 1433.28L1818.15 1325.74L1818.45 1325.59L1937.45 1110.25L2015.77 1074.85V1072.67L1936.17 1108.68L1935.91 1108.83ZM1965.66 166.66L1727.96 274.199L1727.65 274.351L1608.65 489.684L1370.96 597.224L1370.65 597.376L1251.54 812.708L1013.84 920.248L1013.54 920.4L894.538 1135.73L656.839 1243.27L656.538 1243.42L537.537 1458.76L299.838 1566.3L299.536 1566.45L180.536 1781.78L80.2375 1827.17H85.0261L181.818 1783.4L182.119 1783.25L301.12 1567.92L538.819 1460.38L539.121 1460.23L658.121 1244.89L895.82 1137.35L896.122 1137.2L1015.12 921.869L1252.82 814.329L1253.12 814.177L1372.12 598.845L1609.82 491.305L1610.12 491.153L1729.13 275.82L1966.82 168.281L1967.13 168.129L2015.8 80.2431V75.8868L1965.66 166.66ZM1906.12 435.889L1787.12 651.221L1549.38 758.761L1549.08 758.913L1430.08 974.246L1192.34 1081.79L1192.04 1081.94L1073.04 1297.27L835.34 1404.81L835.038 1404.96L716.038 1620.29L478.339 1727.83L478.037 1727.99L423.212 1827.22H425.625L479.658 1729.45L717.357 1621.91L717.659 1621.76L836.697 1406.43L1074.4 1298.89L1074.7 1298.74L1193.74 1083.41L1431.44 975.867L1431.74 975.715L1550.74 760.382L1788.47 652.842L1788.78 652.69L1907.78 437.358L2015.84 388.476V386.298L1906.49 435.737L1906.12 435.889ZM1846.62 1674.09L1762.04 1827.12H1764.46L1848.24 1675.51L2015.8 1599.73V1597.55L1846.96 1673.94L1846.62 1674.09ZM1876.37 1701.04L1806.65 1827.17H1809.06L1877.99 1702.51L2015.8 1640.15V1637.97L1876.71 1700.89L1876.37 1701.04ZM1787.12 1620.24L1672.79 1827.12H1675.21L1788.74 1621.66L2015.84 1518.93V1516.76L1787.46 1620.14L1787.12 1620.24ZM1906.12 1727.93L1851.29 1827.17H1853.71L1907.74 1729.4L2015.8 1680.52V1678.34L1906.46 1727.78L1906.12 1727.93ZM1757.67 1593.19L1757.37 1593.35L1638.37 1808.68L1597.57 1827.12H1602.36L1639.65 1810.25L1639.95 1810.1L1758.95 1594.81L1996.65 1487.28L1996.95 1487.12L2015.77 1453.08V1448.73L1995.37 1485.65L1757.67 1593.19ZM1995.41 1808.68L1985.19 1827.12H1987.6L1996.99 1810.1L2015.8 1801.59V1799.41L1995.71 1808.48L1995.41 1808.68ZM1965.66 1781.78L1940.58 1827.17H1942.99L1967.28 1783.25L2015.84 1761.27V1759.09L1966 1781.63L1965.66 1781.78ZM1906.12 1081.89L1787.12 1297.22L1549.38 1404.76L1549.08 1404.91L1430.08 1620.24L1192.34 1727.78L1192.04 1727.93L1137.21 1827.17H1139.63L1193.66 1729.4L1431.36 1621.86L1431.66 1621.71L1550.66 1406.38L1788.4 1298.84L1788.7 1298.69L1907.7 1083.36L2015.77 1034.47V1032.3L1906.42 1081.73L1906.12 1081.89ZM1935.91 1754.88L1895.94 1827.17H1898.35L1937.49 1756.3L2015.8 1720.89V1718.72L1936.21 1754.73L1935.91 1754.88ZM1727.92 1566.3L1727.62 1566.45L1608.62 1781.78L1508.32 1827.17H1513.11L1609.9 1783.4L1610.2 1783.25L1729.2 1567.92L1966.9 1460.38L1967.2 1460.23L2015.77 1372.34V1367.98L1965.62 1458.76L1727.92 1566.3ZM1816.87 1001.14L1697.87 1216.48L1460.17 1324.02L1459.87 1324.17L1340.87 1539.5L1103.13 1647.04L1102.83 1647.19L1003.36 1827.17H1005.7L1104.37 1648.66L1342.07 1541.12L1342.37 1540.97L1461.37 1325.64L1699.07 1218.1L1699.38 1217.94L1818.38 1002.61L2015.69 913.359V911.181L1817.09 1001.04L1816.87 1001.14ZM1876.37 1054.99L1757.37 1270.32L1519.63 1377.86L1519.33 1378.01L1400.33 1593.35L1162.63 1700.89L1162.33 1701.04L1092.61 1827.17H1095.02L1163.91 1702.51L1401.61 1594.92L1401.91 1594.76L1520.91 1379.43L1758.65 1271.89L1758.95 1271.74L1877.95 1056.41L2015.77 994.051V991.873L1876.71 1054.84L1876.37 1054.99ZM1846.62 1028.09L1727.62 1243.42L1489.92 1350.96L1489.62 1351.12L1370.62 1566.45L1132.92 1673.99L1132.61 1674.14L1048.04 1827.17H1050.45L1134.24 1675.56L1371.94 1568.02L1372.24 1567.87L1491.24 1352.53L1728.94 1244.99L1729.24 1244.84L1848.24 1029.51L2015.8 953.731V951.552L1846.96 1027.94L1846.62 1028.09ZM1787.12 974.246L1668.12 1189.58L1430.42 1297.12L1430.12 1297.27L1311.12 1512.6L1073.34 1620.14L1073.04 1620.29L958.714 1827.17H961.127L1074.66 1621.71L1312.4 1514.17L1312.7 1514.02L1431.7 1298.69L1669.4 1191.15L1669.7 1191L1788.7 975.664L2015.8 872.936V870.758L1787.46 974.043L1787.12 974.246ZM1698.17 1539.35L1697.87 1539.5L1578.83 1754.88L1419.03 1827.17H1423.82L1580.11 1756.45L1580.41 1756.3L1699.41 1540.97L1937.11 1433.43L1937.41 1433.28L2015.73 1291.6V1287.24L1935.83 1431.81L1698.17 1539.35ZM1668.42 1512.45L1668.12 1512.6L1549.12 1727.93L1329.78 1827.17H1334.57L1550.36 1729.56L1550.66 1729.4L1669.66 1514.07L1907.36 1406.53L1907.66 1406.38L2015.73 1210.85V1206.5L1906.08 1404.91L1668.42 1512.45ZM1816.87 1647.19L1717.4 1827.17H1719.81L1818.49 1648.66L2015.8 1559.36V1557.18L1817.21 1647.04L1816.87 1647.19ZM152.218 787.229L389.955 679.74L390.257 679.588L509.258 464.255L746.957 356.716L747.258 356.564L866.297 141.231L1104 33.6915L1104.3 33.5396L1114.52 15.0507H1112.1L1102.71 32.0706L865.052 139.61L864.751 139.762L745.75 355.095L508.051 462.634L507.749 462.786L388.673 678.119L150.974 785.659L150.672 785.811L31.6343 1001.14L12.819 1009.65V1011.83L33.218 1002.61L152.218 787.229ZM92.7182 1056.41L211.719 841.075L449.418 733.535L449.72 733.383L568.72 518.051L806.419 410.511L806.721 410.359L925.721 195.026L1163.42 87.4867L1163.72 87.3347L1203.69 15.0507H1201.28L1162.1 85.9164L924.553 193.456L924.251 193.608L805.25 408.941L567.551 516.48L567.25 516.632L448.249 731.965L210.474 839.504L210.173 839.656L91.1345 1054.99L12.819 1090.4V1092.57L92.4165 1056.56L92.7182 1056.41ZM300.667 1244.99L300.969 1244.84L419.969 1029.51L657.669 921.97L657.97 921.818L776.971 706.485L1014.67 598.946L1014.97 598.794L1133.97 383.461L1371.67 275.922L1371.97 275.77L1490.97 60.4372L1591.31 15.0507H1586.52L1489.69 58.8669L1489.39 59.0188L1370.39 274.351L1132.69 381.891L1132.39 382.043L1013.39 597.376L775.689 704.915L775.387 705.067L656.387 920.4L418.687 1027.94L418.386 1028.09L299.385 1243.42L61.6861 1350.96L61.3844 1351.12L12.819 1439V1443.36L62.9681 1352.58L300.667 1244.99ZM270.917 1218.1L271.219 1217.94L390.219 1002.61L627.919 895.073L628.22 894.921L747.221 679.588L984.958 572.048L985.259 571.896L1104.26 356.564L1341.96 249.024L1342.26 248.872L1461.26 33.5396L1502.1 15.0507H1497.31L1460.02 31.9186L1459.72 32.0706L1340.68 247.403L1102.98 354.943L1102.68 355.095L983.676 570.427L746.052 677.967L745.75 678.119L626.75 893.452L389.013 1000.99L388.711 1001.14L269.711 1216.48L32.0114 1324.02L31.7097 1324.17L12.8944 1358.21V1362.56L33.2934 1325.64L270.917 1218.1ZM74.0537 15.0507H69.2273L31.936 31.9186L31.6343 32.0706L12.819 66.1105V70.4668L33.218 33.5396L74.0537 15.0507ZM181.969 1137.2L300.969 921.869L538.668 814.329L538.97 814.177L657.97 598.845L895.67 491.305L895.971 491.153L1015.01 275.82L1252.71 168.281L1253.01 168.129L1337.59 15.0507H1335.17L1251.54 166.66L1013.84 274.199L1013.54 274.351L894.501 489.684L656.802 597.224L656.5 597.376L537.499 812.708L299.8 920.248L299.498 920.4L180.498 1135.73L12.9321 1211.51V1213.69L181.78 1137.3L181.969 1137.2ZM152.218 1110.25L271.219 894.921L508.956 787.381L509.258 787.229L628.258 571.896L865.957 464.357L866.259 464.205L985.259 248.872L1222.96 141.333L1223.26 141.181L1292.98 15.0507H1290.57L1221.64 139.762L983.94 247.302L983.638 247.454L864.638 462.786L626.938 570.326L626.637 570.478L507.636 785.811L269.899 893.35L269.598 893.502L150.597 1108.83L12.7812 1171.19V1173.37L151.879 1110.46L152.218 1110.25ZM122.468 1083.36L241.469 868.023L479.206 760.483L479.507 760.331L598.508 544.999L836.207 437.459L836.509 437.307L955.509 221.975L1193.21 114.435L1193.51 114.283L1248.33 15.0507H1245.92L1191.89 112.814L954.303 220.354L954.001 220.506L835.001 435.838L597.301 543.378L597 543.53L477.999 758.862L240.224 866.402L239.923 866.554L120.922 1081.89L12.8567 1130.77V1132.95L122.204 1083.51L122.468 1083.36ZM92.7182 1702.46L211.756 1487.12L449.456 1379.58L449.757 1379.43L568.758 1164.1L806.457 1056.56L806.759 1056.41L925.759 841.075L1163.46 733.535L1163.76 733.383L1282.76 518.051L1520.46 410.511L1520.76 410.359L1639.76 195.026L1877.5 87.4867L1877.8 87.3347L1917.77 15.0507H1915.36L1876.22 85.9164L1638.67 193.456L1638.37 193.608L1519.37 408.941L1281.67 516.48L1281.37 516.632L1162.36 731.965L924.666 839.504L924.364 839.656L805.364 1054.99L567.664 1162.53L567.363 1162.68L448.362 1378.01L210.474 1485.55L210.173 1485.7L91.1345 1701.04L12.819 1736.44V1738.62L92.4165 1702.61L92.7182 1702.46ZM62.9681 1675.56L181.969 1460.23L419.668 1352.69L419.969 1352.53L538.97 1137.2L776.669 1029.66L776.971 1029.51L895.971 814.177L1133.67 706.638L1133.97 706.485L1252.97 491.153L1490.67 383.613L1490.97 383.461L1609.97 168.129L1847.67 60.5891L1847.97 60.4372L1873.05 15.0507H1870.64L1846.35 58.9682L1608.92 166.558L1608.62 166.71L1489.62 382.043L1251.92 489.583L1251.62 489.735L1132.61 705.067L894.916 812.607L894.614 812.759L775.613 1028.09L537.914 1135.63L537.613 1135.78L418.612 1351.12L180.913 1458.66L180.611 1458.81L61.6107 1674.14L13.0452 1696.12V1698.3L62.8927 1675.76L62.9681 1675.56ZM152.218 1433.28L389.918 1325.74L390.219 1325.59L509.22 1110.25L746.919 1002.71L747.221 1002.56L866.221 787.229L1103.92 679.689L1104.22 679.537L1223.22 464.205L1460.92 356.665L1461.22 356.513L1580.22 141.181L1817.92 33.6409L1818.22 33.4889L1828.44 15H1826.03L1816.64 32.0199L1578.94 139.56L1578.83 139.762L1459.83 355.095L1222.09 462.634L1221.79 462.786L1102.75 678.119L865.052 785.659L864.751 785.811L745.75 1001.14L508.051 1108.68L507.749 1108.83L388.749 1324.17L150.936 1431.71L150.635 1431.86L31.5966 1647.19L12.7812 1655.7V1657.88L33.1803 1648.66L152.218 1433.28ZM330.417 1271.94L330.719 1271.79L449.72 1056.46L687.419 948.918L687.72 948.766L806.721 733.434L1044.42 625.894L1044.72 625.742L1163.72 410.41L1401.61 302.87L1401.91 302.718L1520.91 87.3854L1680.75 15.1013H1675.96L1519.63 85.7644L1519.33 85.9164L1400.33 301.249L1162.63 408.789L1162.33 408.941L1043.25 624.273L805.552 731.813L805.25 731.965L686.25 947.297L448.551 1054.84L448.249 1054.99L329.249 1270.32L91.4362 1377.86L91.1345 1378.01L12.819 1519.69V1524.05L92.7182 1379.48L330.417 1271.94ZM152.218 1756.3L271.219 1540.97L508.956 1433.43L509.258 1433.28L628.258 1217.94L865.957 1110.41L866.259 1110.25L985.297 894.921L1223 787.381L1223.3 787.229L1342.3 571.896L1580 464.357L1580.3 464.205L1699.3 248.872L1937 141.333L1937.3 141.181L2007.02 15.0507H2004.61L1935.91 139.762L1698.21 247.302L1697.9 247.454L1578.83 462.786L1341.13 570.326L1340.83 570.478L1221.83 785.811L984.128 893.35L983.827 893.502L864.788 1108.83L627.089 1216.37L626.787 1216.53L507.787 1431.86L270.05 1539.4L269.748 1539.55L150.635 1754.88L12.819 1817.24V1819.42L151.917 1756.5L152.218 1756.3ZM360.205 1298.84L360.507 1298.69L479.507 1083.36L717.207 975.816L717.508 975.664L836.509 760.331L1074.21 652.792L1074.51 652.64L1193.51 437.307L1431.21 329.767L1431.51 329.616L1550.51 114.283L1769.85 15.0507H1765.06L1549.42 112.713L1549.12 112.865L1430.12 328.197L1192.34 435.737L1192.04 435.889L1073.04 651.221L835.34 758.761L835.038 758.913L716.038 974.246L478.339 1081.79L478.037 1081.94L359.036 1297.27L121.337 1404.81L121.035 1404.96L12.9698 1600.49V1604.84L122.619 1406.43L360.205 1298.84ZM211.756 1164.1L330.757 948.766L568.456 841.227L568.758 841.075L687.758 625.742L925.457 518.202L925.759 518.051L1044.76 302.718L1282.46 195.178L1282.76 195.026L1382.23 15.0507H1379.82L1281.29 193.608L1043.59 301.148L1043.29 301.3L924.251 516.632L686.552 624.172L686.25 624.324L567.25 839.656L329.55 947.196L329.249 947.348L210.248 1162.68L12.8944 1251.93V1254.11L211.417 1164.25L211.756 1164.1ZM122.468 1729.4L241.469 1514.07L479.206 1406.53L479.507 1406.38L598.508 1191.05L836.207 1083.51L836.509 1083.36L955.509 868.023L1193.21 760.483L1193.51 760.331L1312.51 544.999L1550.21 437.459L1550.51 437.307L1669.7 221.975L1907.4 114.435L1907.7 114.283L1962.53 15.0507H1960.11L1906.08 112.814L1668.42 220.354L1668.12 220.506L1549.08 435.838L1311.38 543.378L1311.08 543.53L1192.08 758.862L954.378 866.402L954.076 866.554L835.076 1081.89L597.377 1189.43L596.962 1189.58L477.961 1404.91L240.224 1512.45L239.923 1512.6L120.922 1727.93L12.8567 1776.82V1778.99L122.204 1729.56L122.468 1729.4ZM62.9681 1029.51L181.969 814.177L419.668 706.638L419.969 706.485L538.97 491.153L776.669 383.613L776.971 383.461L895.971 168.129L1133.67 60.5891L1133.97 60.4372L1159.05 15.0507H1156.63L1132.35 58.9682L894.802 166.558L894.501 166.71L775.5 382.043L537.763 489.583L537.462 489.735L418.461 705.067L180.762 812.607L180.46 812.759L61.4598 1028.09L12.8944 1050.08V1052.25L62.7418 1029.71L62.9681 1029.51ZM122.468 437.307L241.506 221.975L479.243 114.435L479.545 114.283L534.37 15.0507H531.957L477.924 112.814L240.224 220.354L239.885 220.506L120.885 435.889L12.819 484.77V486.949L122.167 437.51L122.468 437.307ZM181.969 491.153L300.969 275.82L538.668 168.281L538.97 168.129L623.545 15.0507H621.132L537.424 166.66L299.725 274.199L299.423 274.351L180.385 489.684L12.819 565.514V567.692L181.667 491.305L181.969 491.153ZM211.756 518.051L330.757 302.718L568.456 195.178L568.758 195.026L668.226 15.0507H665.813L567.212 193.608L329.475 301.148L329.173 301.3L210.135 516.632L12.7812 605.886V608.064L211.379 518.202L211.756 518.051ZM152.218 464.205L271.219 248.872L508.956 141.333L509.258 141.181L578.976 15.0507H576.563L507.636 139.762L269.975 247.302L269.673 247.454L150.635 462.786L12.819 525.142V527.32L151.917 464.407L152.218 464.205ZM241.506 544.999L360.507 329.666L598.206 222.127L598.508 221.975L712.87 15.1013H710.457L596.962 220.506L359.225 328.045L358.923 328.197L239.885 543.53L12.7812 646.257V648.435L241.129 545.151L241.506 544.999ZM163.304 15.0507H158.515L61.6861 58.8669L61.3844 59.0188L12.819 146.854V151.21L62.9681 60.4372L163.304 15.0507ZM341.842 15.0507H337.054L121.186 112.713L120.885 112.865L12.819 308.391V312.748L122.468 114.334L341.842 15.0507ZM252.554 15.0507H247.766L91.4362 85.7644L91.1345 85.9164L12.819 227.648V232.004L92.7182 87.3854L252.554 15.0507ZM270.917 572.048L271.219 571.896L390.219 356.564L627.919 249.024L628.22 248.872L747.221 33.5396L788.056 15.0507H783.268L745.976 31.9186L745.675 32.0706L626.674 247.403L388.975 354.943L388.673 355.095L269.635 570.478L31.936 677.967L31.6343 678.119L12.819 712.159V716.515L33.218 679.588L270.917 572.048ZM92.7182 410.41L211.756 195.026L449.456 87.4867L449.757 87.3347L489.726 15.0507H487.313L448.136 85.9164L210.474 193.456L210.173 193.608L91.1345 408.941L12.819 444.348V446.526L92.4165 410.511L92.7182 410.41ZM360.205 652.792L360.507 652.64L479.507 437.307L717.207 329.767L717.508 329.616L836.509 114.283L1055.85 15.0507H1051.06L835.227 112.662L834.925 112.814L715.925 328.147L478.225 435.686L477.924 435.838L358.923 651.221L121.224 758.761L120.922 758.913L12.8567 954.44V958.796L122.506 760.382L360.205 652.792ZM300.667 598.946L300.969 598.794L419.969 383.461L657.669 275.922L657.97 275.77L776.971 60.4372L877.307 15.0507H872.518L775.689 58.8669L775.387 59.0188L656.387 274.351L418.725 381.891L418.424 382.043L299.385 597.376L61.6861 704.915L61.3844 705.067L12.819 792.953V797.309L62.9681 706.536L300.667 598.946ZM330.417 625.894L330.757 625.742L449.795 410.41L687.494 302.87L687.796 302.718L806.796 87.3854L966.633 15.1013H961.844L805.514 85.8151L805.213 85.9671L686.212 301.3L448.513 408.839L448.211 408.991L329.173 624.273L91.4362 731.813L91.1345 731.965L12.819 873.646V878.002L92.7182 733.434L330.417 625.894ZM62.9681 383.461L181.969 168.129L419.668 60.5891L419.969 60.4372L445.044 15.0507H442.631L418.348 58.9682L180.724 166.558L180.423 166.71L61.3844 382.043L12.819 404.027V406.205L62.6664 383.664L62.9681 383.461ZM152.218 141.231L389.955 33.6915L390.257 33.5396L400.475 15.0507H398.062L388.673 32.0706L150.936 139.61L150.635 139.762L31.6343 355.095L12.819 363.605V365.783L33.218 356.564L152.218 141.231ZM241.506 1191L360.507 975.664L598.206 868.124L598.508 867.972L717.546 652.64L955.245 545.1L955.547 544.948L1074.55 329.616L1312.28 222.076L1312.59 221.924L1426.95 15.0507H1424.54L1311.04 220.506L1073.34 328.045L1073.04 328.197L954.039 543.53L716.302 651.069L716 651.221L597 866.554L359.3 974.094L358.999 974.246L239.885 1189.58L12.7812 1292.31V1294.48L241.129 1191.2L241.506 1191Z" fill="#13C4A1"/>
</g>
</svg>
